<?xml version="1.0" encoding="utf-8"?>
<!-- Generator: Adobe Illustrator 16.0.0, SVG Export Plug-In . SVG Version: 6.00 Build 0)  -->
<!DOCTYPE svg PUBLIC "-//W3C//DTD SVG 1.1//EN" "http://www.w3.org/Graphics/SVG/1.1/DTD/svg11.dtd">
<svg version="1.1" id="Layer_1" xmlns="http://www.w3.org/2000/svg" xmlns:xlink="http://www.w3.org/1999/xlink" x="0px" y="0px"
	 width="335.986px" height="235.19px" viewBox="0 0 335.986 235.19" enable-background="new 0 0 335.986 235.19"
	 xml:space="preserve">
<g>
	<g>
		<rect x="0.689" y="0.094" fill="#0E3C54" width="335.986" height="235.19"/>
	</g>
</g>
<text id="XMLID_5_" transform="matrix(1 0 0 1 171.3379 107.2432)" fill="#0A293B" font-family="'Bebas'" font-size="13.5583">205</text>
<g>
	<path fill="#0A293B" d="M106.673,130.84c-12.758,0-23.1,10.346-23.1,23.102c0,12.759,10.342,23.103,23.1,23.103
		s23.1-10.344,23.1-23.103C129.772,141.186,119.431,130.84,106.673,130.84z"/>
	<circle fill="#0A293B" cx="241.312" cy="154.355" r="22.688"/>
	<circle fill="#0A293B" cx="290.188" cy="194.566" r="24.25"/>
	<circle fill="#0A293B" cx="60.188" cy="194.566" r="24.25"/>
	<path fill="#0A293B" d="M205.414,173.988V77.166c0-5.096-4.131-9.22-9.226-9.22h-46.104c-5.093,0-9.222,4.124-9.222,9.22v96.822
		c0,5.089,4.129,9.219,9.222,9.219h46.104C201.283,183.207,205.414,179.077,205.414,173.988z"/>
	<rect x="167.587" y="211.738" fill="#0A293B" width="11.413" height="10.006"/>
	<rect x="184.318" y="199.101" fill="#0A293B" width="11.416" height="22.501"/>
	<rect x="201.053" y="203.078" fill="#0A293B" width="11.412" height="18.666"/>
	<rect x="217.785" y="192.526" fill="#0A293B" width="11.413" height="29.075"/>
	<rect x="117.072" y="192.526" fill="#0A293B" width="11.413" height="29.218"/>
	<rect x="133.803" y="204.623" fill="#0A293B" width="11.417" height="16.979"/>
	<rect x="150.538" y="199.101" fill="#0A293B" width="11.413" height="22.644"/>
	<path fill="#0A293B" d="M46.154,45.014V49.8l6.918-4.786h5.042c3.351,0,6.083-2.72,6.083-6.064V32.11
		c0-3.348-2.732-6.062-6.083-6.062H46.23c-3.355,0-6.08,2.714-6.08,6.062v6.839C40.15,42.276,42.836,44.969,46.154,45.014z"/>
	<path fill="#0A293B" d="M57.707,48.237v3.597c0,4.563,3.716,7.338,8.275,7.338h6.855l9.428,6.511v-6.511
		c4.517-0.056,8.16-3.733,8.16-8.263v-9.297c0-4.561-3.704-8.266-8.26-8.266H68.457v7.135c0,3.776-3.97,7.756-7.753,7.756H57.707z"
		/>
	<path fill="#0A293B" d="M286.377,45.014h5.041l6.919,4.786v-4.786c3.319-0.045,6.004-2.737,6.004-6.064V32.11
		c0-3.348-2.726-6.062-6.08-6.062h-11.884c-3.351,0-6.083,2.714-6.083,6.062v6.839C280.294,42.294,283.026,45.014,286.377,45.014z"
		/>
	<path fill="#0A293B" d="M262.225,59.172v6.511l9.429-6.511h6.854c4.561,0,8.275-2.774,8.275-7.338v-3.597h-2.996
		c-3.783,0-7.753-3.979-7.753-7.756v-7.135h-13.709c-4.556,0-8.26,3.705-8.26,8.266v9.297
		C254.065,55.438,257.709,59.116,262.225,59.172z"/>
	<path fill="#0A293B" d="M62.66,139.342c0.584,0.18,1.141,0.18,1.735,0c18.784-5.674,32.583-24.479,32.583-46.799
		c0-4.088-0.461-8.061-1.334-11.851c-0.201-0.858-0.701-1.521-1.467-1.951c-0.761-0.432-1.585-0.508-2.42-0.23
		c-2.408,0.8-4.959,1.233-7.598,1.233c-7.196,0-13.711-3.202-18.402-8.362c-0.594-0.647-1.353-0.979-2.227-0.979
		c-0.881,0-1.639,0.332-2.223,0.979c-4.703,5.16-11.218,8.362-18.412,8.362c-2.648,0-5.191-0.434-7.6-1.233
		c-0.835-0.277-1.65-0.201-2.417,0.23c-0.769,0.43-1.269,1.093-1.47,1.951c-0.875,3.79-1.333,7.763-1.333,11.851
		C30.077,114.863,43.874,133.668,62.66,139.342z"/>
	<path fill="#0A293B" d="M281.671,139.56c0.584,0.183,1.141,0.183,1.734,0c18.785-5.681,32.583-24.477,32.583-46.791
		c0-4.087-0.462-8.062-1.335-11.86c-0.2-0.854-0.699-1.516-1.465-1.946c-0.762-0.422-1.587-0.511-2.42-0.231
		c-2.408,0.806-4.961,1.239-7.599,1.239c-7.196,0-13.711-3.206-18.402-8.368c-0.595-0.643-1.353-0.977-2.226-0.977
		c-0.881,0-1.641,0.334-2.225,0.977c-4.702,5.162-11.217,8.368-18.412,8.368c-2.647,0-5.191-0.434-7.598-1.239
		c-0.836-0.279-1.652-0.19-2.419,0.231c-0.767,0.431-1.268,1.093-1.469,1.946c-0.874,3.799-1.333,7.773-1.333,11.86
		C249.087,115.083,262.884,133.879,281.671,139.56z"/>
</g>
<path id="XMLID_346_" fill="#ED7076" d="M101.673,126.84c-12.758,0-23.1,10.346-23.1,23.102c0,12.759,10.342,23.103,23.1,23.103
	s23.1-10.344,23.1-23.103C124.772,137.186,114.431,126.84,101.673,126.84z"/>
<polygon id="XMLID_62_" fill="#CF6266" points="93.88,164.391 93.88,139.327 115.583,151.857 "/>
<polygon id="XMLID_237_" fill="#FFFFFF" points="93.88,161.475 93.88,136.411 115.583,148.941 "/>
<g id="XMLID_241_">
	<circle id="XMLID_238_" fill="#CAD436" cx="236.311" cy="150.355" r="22.689"/>
	<g id="XMLID_222_">
		<rect id="XMLID_234_" x="222.129" y="140.884" fill="#2AB2CC" width="28.369" height="18.939"/>
		<polygon id="XMLID_229_" fill="#E6E6E6" points="250.498,159.823 239.911,140.884 232.714,140.884 222.129,159.823 		"/>
		<polygon id="XMLID_223_" fill="#FFFFFF" points="250.498,140.884 236.312,151.852 222.129,140.884 		"/>
	</g>
</g>
<g id="XMLID_385_">
	<circle id="XMLID_375_" fill="#FFFFFF" cx="285.188" cy="190.566" r="24.25"/>
	<path id="XMLID_363_" fill="#ED7076" d="M285.188,184.877c-6.084-10.301-17.765-8.176-15.156,3.487
		c2.064,9.224,15.156,17.062,15.156,17.062s13.092-7.838,15.157-17.062C302.955,176.701,291.27,174.576,285.188,184.877z"/>
</g>
<g id="XMLID_74_">
	<circle id="XMLID_80_" fill="#FFFFFF" cx="55.188" cy="190.566" r="24.25"/>
</g>
<g>
	<path fill="#FFFFFF" d="M128.736,26.988c0,0.417-0.083,0.807-0.248,1.171c-0.166,0.365-0.405,0.682-0.717,0.951
		c-0.312,0.271-0.691,0.483-1.137,0.64c-0.444,0.155-0.951,0.233-1.519,0.233c-0.521,0-1.041-0.057-1.562-0.17
		s-1.004-0.279-1.448-0.497l0.469-1.774c0.331,0.161,0.704,0.301,1.121,0.419c0.416,0.118,0.866,0.178,1.349,0.178
		c0.397,0,0.725-0.073,0.979-0.221c0.256-0.146,0.384-0.386,0.384-0.717c0-0.236-0.111-0.452-0.334-0.646
		c-0.223-0.194-0.627-0.4-1.214-0.618c-0.928-0.35-1.604-0.75-2.03-1.199c-0.426-0.45-0.639-1.024-0.639-1.726
		c0-0.918,0.301-1.618,0.901-2.101c0.602-0.483,1.432-0.725,2.492-0.725c0.539,0,1.055,0.06,1.547,0.178s0.909,0.272,1.25,0.461
		l-0.397,1.747c-0.332-0.161-0.694-0.291-1.087-0.391s-0.797-0.149-1.214-0.149c-0.35,0-0.632,0.06-0.845,0.178
		s-0.319,0.319-0.319,0.604c0,0.133,0.02,0.246,0.057,0.341c0.038,0.095,0.106,0.185,0.206,0.27s0.239,0.17,0.419,0.256
		c0.18,0.085,0.407,0.185,0.682,0.298c0.397,0.161,0.771,0.331,1.121,0.511c0.351,0.18,0.653,0.389,0.909,0.625
		s0.456,0.507,0.604,0.81C128.663,26.227,128.736,26.581,128.736,26.988z"/>
	<path fill="#FFFFFF" d="M139.271,25.086c0,0.672-0.108,1.304-0.326,1.896c-0.218,0.591-0.532,1.109-0.944,1.555
		c-0.412,0.444-0.916,0.797-1.512,1.058c-0.597,0.26-1.278,0.39-2.045,0.39s-1.45-0.13-2.052-0.39
		c-0.601-0.261-1.106-0.613-1.519-1.058c-0.412-0.445-0.725-0.964-0.938-1.555c-0.213-0.592-0.319-1.224-0.319-1.896
		s0.106-1.304,0.319-1.896s0.525-1.109,0.938-1.555c0.412-0.444,0.918-0.797,1.519-1.058c0.602-0.26,1.285-0.391,2.052-0.391
		s1.448,0.131,2.045,0.391c0.596,0.261,1.1,0.613,1.512,1.058c0.412,0.445,0.727,0.963,0.944,1.555S139.271,24.414,139.271,25.086z
		 M134.443,28.139c0.407,0,0.767-0.076,1.079-0.228s0.575-0.362,0.788-0.632s0.371-0.592,0.476-0.966
		c0.104-0.373,0.156-0.782,0.156-1.228s-0.052-0.854-0.156-1.229c-0.104-0.373-0.263-0.695-0.476-0.965
		c-0.213-0.271-0.476-0.48-0.788-0.632s-0.672-0.228-1.079-0.228c-0.416,0-0.778,0.076-1.086,0.228s-0.567,0.361-0.781,0.632
		c-0.213,0.27-0.371,0.592-0.476,0.965c-0.104,0.374-0.155,0.783-0.155,1.229s0.052,0.854,0.155,1.228
		c0.104,0.374,0.263,0.696,0.476,0.966c0.214,0.27,0.474,0.48,0.781,0.632S134.027,28.139,134.443,28.139z"/>
	<path fill="#FFFFFF" d="M145.39,20.188c0.492,0,0.986,0.047,1.483,0.141c0.497,0.095,0.925,0.23,1.285,0.409l-0.341,1.708
		c-0.284-0.114-0.608-0.211-0.973-0.291s-0.727-0.121-1.086-0.121c-0.966,0-1.728,0.252-2.286,0.756s-0.837,1.27-0.837,2.297
		s0.278,1.792,0.837,2.296s1.32,0.757,2.286,0.757c0.359,0,0.722-0.041,1.086-0.121s0.688-0.178,0.973-0.291l0.341,1.708
		c-0.36,0.179-0.788,0.314-1.285,0.408s-0.991,0.141-1.483,0.141c-0.833,0-1.566-0.123-2.2-0.369
		c-0.635-0.245-1.165-0.586-1.591-1.021s-0.747-0.951-0.965-1.548s-0.327-1.249-0.327-1.959s0.109-1.363,0.327-1.959
		c0.218-0.597,0.539-1.112,0.965-1.548s0.956-0.776,1.591-1.022C143.823,20.311,144.557,20.188,145.39,20.188z"/>
	<path fill="#FFFFFF" d="M152.048,29.813h-2.328v-9.455h2.328V29.813z"/>
	<path fill="#FFFFFF" d="M159.813,27.982h-3.621l-0.582,1.831h-2.399l3.521-9.455h2.556l3.521,9.455h-2.399L159.813,27.982z
		 M156.789,26.137h2.428l-1.207-3.99L156.789,26.137z"/>
	<path fill="#FFFFFF" d="M166.23,20.358v7.609h3.479v1.846h-5.807v-9.455H166.23z"/>
	<path fill="#FFFFFF" d="M180.272,28.309h-2.243l-1.846-3.791l-0.284,5.296h-2.285l0.709-9.455h2.102l2.726,5.778l2.727-5.778h2.101
		l0.71,9.455h-2.285l-0.284-5.296L180.272,28.309z"/>
	<path fill="#FFFFFF" d="M186.207,20.358h5.892v1.846h-3.563v1.902h3.394v1.846h-3.394v2.016h3.606v1.846h-5.935V20.358z"/>
	<path fill="#FFFFFF" d="M193.746,20.358h2.882c0.833,0,1.598,0.118,2.293,0.354c0.695,0.237,1.29,0.563,1.782,0.979
		c0.491,0.417,0.875,0.916,1.149,1.498s0.412,1.214,0.412,1.896s-0.138,1.313-0.412,1.896s-0.658,1.081-1.149,1.497
		c-0.492,0.417-1.087,0.743-1.782,0.98c-0.695,0.236-1.46,0.354-2.293,0.354h-2.882V20.358z M196.771,27.968
		c0.473,0,0.903-0.066,1.292-0.198c0.388-0.133,0.721-0.322,1-0.568s0.495-0.547,0.646-0.901c0.151-0.355,0.228-0.76,0.228-1.214
		s-0.076-0.859-0.228-1.214c-0.151-0.355-0.367-0.655-0.646-0.901s-0.612-0.436-1-0.568c-0.389-0.132-0.819-0.198-1.292-0.198
		h-0.696v5.764H196.771z"/>
	<path fill="#FFFFFF" d="M205.984,29.813h-2.328v-9.455h2.328V29.813z"/>
	<path fill="#FFFFFF" d="M213.75,27.982h-3.621l-0.582,1.831h-2.399l3.521-9.455h2.556l3.521,9.455h-2.399L213.75,27.982z
		 M210.726,26.137h2.428l-1.207-3.99L210.726,26.137z"/>
</g>
<g>
	<path fill="#83CCCD" d="M106.805,34.881h0.388v2.678h1.283v0.325h-1.671V34.881z"/>
	<path fill="#83CCCD" d="M110.784,36.788c0,0.797-0.552,1.145-1.073,1.145c-0.584,0-1.034-0.428-1.034-1.109
		c0-0.722,0.473-1.145,1.069-1.145C110.366,35.679,110.784,36.128,110.784,36.788z M109.073,36.81c0,0.473,0.272,0.829,0.655,0.829
		c0.374,0,0.655-0.352,0.655-0.838c0-0.365-0.183-0.828-0.646-0.828C109.274,35.973,109.073,36.4,109.073,36.81z"/>
	<path fill="#83CCCD" d="M111.281,36.4c0-0.254-0.004-0.473-0.018-0.673h0.343l0.014,0.423h0.018
		c0.098-0.289,0.334-0.472,0.597-0.472c0.045,0,0.076,0.004,0.111,0.013v0.37c-0.04-0.009-0.08-0.014-0.133-0.014
		c-0.276,0-0.473,0.21-0.526,0.504c-0.009,0.054-0.018,0.115-0.018,0.183v1.149h-0.388V36.4z"/>
	<path fill="#83CCCD" d="M112.913,36.877c0.009,0.53,0.347,0.748,0.739,0.748c0.28,0,0.45-0.049,0.597-0.111l0.067,0.281
		c-0.139,0.062-0.374,0.134-0.718,0.134c-0.664,0-1.061-0.438-1.061-1.088s0.384-1.162,1.012-1.162c0.704,0,0.892,0.619,0.892,1.016
		c0,0.08-0.01,0.143-0.014,0.183H112.913z M114.062,36.596c0.004-0.249-0.103-0.637-0.544-0.637c-0.396,0-0.57,0.365-0.602,0.637
		H114.062z"/>
	<path fill="#83CCCD" d="M114.929,36.311c0-0.223-0.005-0.405-0.018-0.583h0.343l0.018,0.348h0.014
		c0.12-0.205,0.321-0.396,0.678-0.396c0.294,0,0.517,0.178,0.61,0.432h0.009c0.066-0.12,0.151-0.214,0.24-0.28
		c0.129-0.099,0.271-0.151,0.477-0.151c0.285,0,0.709,0.187,0.709,0.936v1.27h-0.384v-1.221c0-0.414-0.151-0.664-0.468-0.664
		c-0.223,0-0.396,0.165-0.463,0.356c-0.018,0.054-0.031,0.125-0.031,0.196v1.332h-0.383v-1.292c0-0.343-0.152-0.593-0.45-0.593
		c-0.245,0-0.424,0.196-0.486,0.393c-0.021,0.058-0.031,0.124-0.031,0.191v1.301h-0.383V36.311z"/>
	<path fill="#83CCCD" d="M120.03,35.121c0.005,0.134-0.094,0.241-0.249,0.241c-0.139,0-0.236-0.107-0.236-0.241
		c0-0.138,0.103-0.245,0.245-0.245C119.937,34.876,120.03,34.983,120.03,35.121z M119.594,37.884v-2.156h0.393v2.156H119.594z"/>
	<path fill="#83CCCD" d="M120.638,36.432c0-0.276-0.009-0.499-0.018-0.704h0.352l0.019,0.369h0.009
		c0.16-0.263,0.414-0.418,0.766-0.418c0.521,0,0.914,0.44,0.914,1.096c0,0.775-0.473,1.158-0.98,1.158
		c-0.285,0-0.535-0.125-0.664-0.339h-0.009v1.172h-0.388V36.432z M121.025,37.006c0,0.058,0.009,0.111,0.018,0.16
		c0.071,0.272,0.308,0.459,0.588,0.459c0.415,0,0.655-0.338,0.655-0.833c0-0.432-0.228-0.802-0.642-0.802
		c-0.268,0-0.517,0.191-0.593,0.485c-0.013,0.049-0.026,0.107-0.026,0.16V37.006z"/>
	<path fill="#83CCCD" d="M123.121,37.482c0.116,0.076,0.321,0.156,0.518,0.156c0.285,0,0.418-0.143,0.418-0.32
		c0-0.188-0.111-0.29-0.4-0.397c-0.388-0.138-0.57-0.352-0.57-0.61c0-0.347,0.28-0.632,0.744-0.632c0.218,0,0.41,0.062,0.53,0.133
		l-0.099,0.285c-0.084-0.053-0.24-0.124-0.44-0.124c-0.232,0-0.361,0.134-0.361,0.294c0,0.178,0.129,0.258,0.41,0.365
		c0.374,0.143,0.565,0.33,0.565,0.65c0,0.379-0.294,0.646-0.807,0.646c-0.235,0-0.454-0.059-0.605-0.147L123.121,37.482z"/>
	<path fill="#83CCCD" d="M126.745,37.296c0,0.223,0.004,0.419,0.018,0.588h-0.348l-0.022-0.352h-0.009
		c-0.103,0.174-0.329,0.4-0.713,0.4c-0.338,0-0.744-0.187-0.744-0.944v-1.261h0.393v1.193c0,0.41,0.125,0.687,0.481,0.687
		c0.263,0,0.445-0.183,0.517-0.356c0.022-0.058,0.035-0.129,0.035-0.2v-1.323h0.393V37.296z"/>
	<path fill="#83CCCD" d="M127.397,36.311c0-0.223-0.005-0.405-0.018-0.583h0.343l0.018,0.348h0.014
		c0.12-0.205,0.321-0.396,0.678-0.396c0.294,0,0.517,0.178,0.61,0.432h0.009c0.066-0.12,0.151-0.214,0.24-0.28
		c0.129-0.099,0.271-0.151,0.477-0.151c0.285,0,0.709,0.187,0.709,0.936v1.27h-0.384v-1.221c0-0.414-0.151-0.664-0.468-0.664
		c-0.223,0-0.396,0.165-0.463,0.356c-0.018,0.054-0.031,0.125-0.031,0.196v1.332h-0.383v-1.292c0-0.343-0.152-0.593-0.45-0.593
		c-0.245,0-0.424,0.196-0.486,0.393c-0.021,0.058-0.031,0.124-0.031,0.191v1.301h-0.383V36.311z"/>
	<path fill="#83CCCD" d="M133.925,34.721v2.606c0,0.191,0.005,0.409,0.018,0.557h-0.352l-0.018-0.374h-0.009
		c-0.121,0.24-0.384,0.423-0.735,0.423c-0.521,0-0.923-0.441-0.923-1.096c-0.004-0.718,0.441-1.158,0.967-1.158
		c0.33,0,0.553,0.155,0.651,0.329h0.009v-1.287H133.925z M133.533,36.605c0-0.05-0.005-0.116-0.019-0.165
		c-0.058-0.25-0.271-0.455-0.565-0.455c-0.405,0-0.646,0.356-0.646,0.834c0,0.437,0.214,0.797,0.638,0.797
		c0.263,0,0.503-0.174,0.574-0.468c0.014-0.054,0.019-0.106,0.019-0.169V36.605z"/>
	<path fill="#83CCCD" d="M136.529,36.788c0,0.797-0.552,1.145-1.073,1.145c-0.584,0-1.034-0.428-1.034-1.109
		c0-0.722,0.473-1.145,1.069-1.145C136.111,35.679,136.529,36.128,136.529,36.788z M134.818,36.81c0,0.473,0.272,0.829,0.655,0.829
		c0.374,0,0.655-0.352,0.655-0.838c0-0.365-0.183-0.828-0.646-0.828C135.02,35.973,134.818,36.4,134.818,36.81z"/>
	<path fill="#83CCCD" d="M137.026,34.721h0.393v3.163h-0.393V34.721z"/>
	<path fill="#83CCCD" d="M140.03,36.788c0,0.797-0.552,1.145-1.073,1.145c-0.584,0-1.034-0.428-1.034-1.109
		c0-0.722,0.473-1.145,1.069-1.145C139.612,35.679,140.03,36.128,140.03,36.788z M138.319,36.81c0,0.473,0.272,0.829,0.655,0.829
		c0.374,0,0.655-0.352,0.655-0.838c0-0.365-0.183-0.828-0.646-0.828C138.521,35.973,138.319,36.4,138.319,36.81z"/>
	<path fill="#83CCCD" d="M140.527,36.4c0-0.254-0.004-0.473-0.018-0.673h0.343l0.014,0.423h0.018
		c0.098-0.289,0.334-0.472,0.597-0.472c0.045,0,0.076,0.004,0.111,0.013v0.37c-0.04-0.009-0.08-0.014-0.133-0.014
		c-0.276,0-0.473,0.21-0.526,0.504c-0.009,0.054-0.018,0.115-0.018,0.183v1.149h-0.388V36.4z"/>
	<path fill="#83CCCD" d="M142.877,37.482c0.116,0.076,0.321,0.156,0.518,0.156c0.285,0,0.418-0.143,0.418-0.32
		c0-0.188-0.111-0.29-0.4-0.397c-0.388-0.138-0.57-0.352-0.57-0.61c0-0.347,0.28-0.632,0.744-0.632c0.218,0,0.41,0.062,0.53,0.133
		l-0.099,0.285c-0.084-0.053-0.24-0.124-0.44-0.124c-0.232,0-0.361,0.134-0.361,0.294c0,0.178,0.129,0.258,0.41,0.365
		c0.374,0.143,0.565,0.33,0.565,0.65c0,0.379-0.294,0.646-0.807,0.646c-0.235,0-0.454-0.059-0.605-0.147L142.877,37.482z"/>
	<path fill="#83CCCD" d="M145.133,35.121c0.005,0.134-0.094,0.241-0.249,0.241c-0.139,0-0.236-0.107-0.236-0.241
		c0-0.138,0.103-0.245,0.245-0.245C145.039,34.876,145.133,34.983,145.133,35.121z M144.696,37.884v-2.156h0.393v2.156H144.696z"/>
	<path fill="#83CCCD" d="M146.213,35.108v0.619h0.562v0.298h-0.562v1.163c0,0.268,0.075,0.419,0.294,0.419
		c0.103,0,0.178-0.014,0.228-0.026l0.018,0.294c-0.076,0.031-0.196,0.054-0.348,0.054c-0.183,0-0.33-0.059-0.424-0.165
		c-0.111-0.116-0.151-0.308-0.151-0.562v-1.177h-0.334v-0.298h0.334V35.21L146.213,35.108z"/>
	<path fill="#83CCCD" d="M149.356,37.884l-0.031-0.271h-0.014c-0.12,0.169-0.352,0.32-0.659,0.32c-0.437,0-0.659-0.308-0.659-0.619
		c0-0.521,0.463-0.807,1.296-0.802v-0.045c0-0.178-0.049-0.499-0.49-0.499c-0.2,0-0.409,0.062-0.561,0.16l-0.09-0.258
		c0.179-0.116,0.438-0.191,0.709-0.191c0.659,0,0.819,0.449,0.819,0.882v0.807c0,0.187,0.009,0.369,0.036,0.517H149.356z
		 M149.299,36.783c-0.428-0.009-0.914,0.067-0.914,0.485c0,0.254,0.17,0.375,0.37,0.375c0.28,0,0.459-0.179,0.521-0.361
		c0.013-0.04,0.022-0.085,0.022-0.125V36.783z"/>
	<path fill="#83CCCD" d="M150.312,36.311c0-0.223-0.005-0.405-0.018-0.583h0.343l0.018,0.348h0.014
		c0.12-0.205,0.321-0.396,0.678-0.396c0.294,0,0.517,0.178,0.61,0.432h0.009c0.066-0.12,0.151-0.214,0.24-0.28
		c0.129-0.099,0.271-0.151,0.477-0.151c0.285,0,0.709,0.187,0.709,0.936v1.27h-0.384v-1.221c0-0.414-0.151-0.664-0.468-0.664
		c-0.223,0-0.396,0.165-0.463,0.356c-0.018,0.054-0.031,0.125-0.031,0.196v1.332h-0.383v-1.292c0-0.343-0.152-0.593-0.45-0.593
		c-0.245,0-0.424,0.196-0.486,0.393c-0.021,0.058-0.031,0.124-0.031,0.191v1.301h-0.383V36.311z"/>
	<path fill="#83CCCD" d="M154.25,36.877c0.009,0.53,0.348,0.748,0.739,0.748c0.28,0,0.45-0.049,0.597-0.111l0.067,0.281
		c-0.139,0.062-0.374,0.134-0.718,0.134c-0.664,0-1.061-0.438-1.061-1.088s0.384-1.162,1.012-1.162c0.704,0,0.892,0.619,0.892,1.016
		c0,0.08-0.01,0.143-0.014,0.183H154.25z M155.399,36.596c0.004-0.249-0.103-0.637-0.544-0.637c-0.396,0-0.57,0.365-0.602,0.637
		H155.399z"/>
	<path fill="#83CCCD" d="M156.738,35.108v0.619h0.562v0.298h-0.562v1.163c0,0.268,0.075,0.419,0.294,0.419
		c0.103,0,0.178-0.014,0.228-0.026l0.018,0.294c-0.076,0.031-0.196,0.054-0.348,0.054c-0.183,0-0.33-0.059-0.424-0.165
		c-0.111-0.116-0.151-0.308-0.151-0.562v-1.177h-0.334v-0.298h0.334V35.21L156.738,35.108z"/>
	<path fill="#83CCCD" d="M157.476,38.432c0.098-0.263,0.219-0.739,0.268-1.064l0.437-0.045c-0.103,0.379-0.299,0.873-0.424,1.083
		L157.476,38.432z"/>
	<path fill="#83CCCD" d="M161.135,37.804c-0.103,0.054-0.33,0.125-0.619,0.125c-0.65,0-1.074-0.441-1.074-1.101
		c0-0.664,0.455-1.146,1.159-1.146c0.231,0,0.437,0.058,0.543,0.111l-0.089,0.303c-0.094-0.053-0.24-0.102-0.454-0.102
		c-0.495,0-0.763,0.365-0.763,0.814c0,0.499,0.321,0.807,0.749,0.807c0.223,0,0.37-0.058,0.481-0.106L161.135,37.804z"/>
	<path fill="#83CCCD" d="M163.52,36.788c0,0.797-0.552,1.145-1.073,1.145c-0.584,0-1.034-0.428-1.034-1.109
		c0-0.722,0.473-1.145,1.069-1.145C163.102,35.679,163.52,36.128,163.52,36.788z M161.809,36.81c0,0.473,0.272,0.829,0.655,0.829
		c0.374,0,0.655-0.352,0.655-0.838c0-0.365-0.183-0.828-0.646-0.828C162.01,35.973,161.809,36.4,161.809,36.81z"/>
	<path fill="#83CCCD" d="M164.017,36.311c0-0.223-0.005-0.405-0.018-0.583h0.348l0.022,0.356h0.009
		c0.106-0.205,0.356-0.405,0.713-0.405c0.298,0,0.762,0.178,0.762,0.917v1.288h-0.393v-1.243c0-0.348-0.129-0.637-0.499-0.637
		c-0.258,0-0.459,0.183-0.525,0.4c-0.018,0.049-0.026,0.116-0.026,0.183v1.297h-0.393V36.311z"/>
	<path fill="#83CCCD" d="M166.438,37.482c0.116,0.076,0.321,0.156,0.518,0.156c0.285,0,0.418-0.143,0.418-0.32
		c0-0.188-0.111-0.29-0.4-0.397c-0.388-0.138-0.57-0.352-0.57-0.61c0-0.347,0.28-0.632,0.744-0.632c0.218,0,0.409,0.062,0.53,0.133
		l-0.099,0.285c-0.084-0.053-0.24-0.124-0.44-0.124c-0.232,0-0.361,0.134-0.361,0.294c0,0.178,0.129,0.258,0.41,0.365
		c0.374,0.143,0.565,0.33,0.565,0.65c0,0.379-0.294,0.646-0.807,0.646c-0.235,0-0.454-0.059-0.605-0.147L166.438,37.482z"/>
	<path fill="#83CCCD" d="M168.477,36.877c0.009,0.53,0.348,0.748,0.739,0.748c0.28,0,0.45-0.049,0.597-0.111l0.067,0.281
		c-0.139,0.062-0.374,0.134-0.718,0.134c-0.664,0-1.061-0.438-1.061-1.088s0.384-1.162,1.012-1.162c0.704,0,0.892,0.619,0.892,1.016
		c0,0.08-0.01,0.143-0.014,0.183H168.477z M169.626,36.596c0.004-0.249-0.103-0.637-0.544-0.637c-0.396,0-0.57,0.365-0.602,0.637
		H169.626z"/>
	<path fill="#83CCCD" d="M172.029,37.804c-0.103,0.054-0.33,0.125-0.619,0.125c-0.65,0-1.074-0.441-1.074-1.101
		c0-0.664,0.455-1.146,1.159-1.146c0.231,0,0.437,0.058,0.543,0.111l-0.089,0.303c-0.094-0.053-0.24-0.102-0.454-0.102
		c-0.495,0-0.763,0.365-0.763,0.814c0,0.499,0.321,0.807,0.749,0.807c0.223,0,0.37-0.058,0.481-0.106L172.029,37.804z"/>
	<path fill="#83CCCD" d="M173.021,35.108v0.619h0.562v0.298h-0.562v1.163c0,0.268,0.075,0.419,0.294,0.419
		c0.103,0,0.178-0.014,0.228-0.026l0.018,0.294c-0.076,0.031-0.196,0.054-0.348,0.054c-0.183,0-0.33-0.059-0.424-0.165
		c-0.111-0.116-0.151-0.308-0.151-0.562v-1.177h-0.334v-0.298h0.334V35.21L173.021,35.108z"/>
	<path fill="#83CCCD" d="M174.217,36.877c0.009,0.53,0.348,0.748,0.739,0.748c0.28,0,0.45-0.049,0.597-0.111l0.067,0.281
		c-0.139,0.062-0.374,0.134-0.718,0.134c-0.664,0-1.061-0.438-1.061-1.088s0.384-1.162,1.012-1.162c0.704,0,0.892,0.619,0.892,1.016
		c0,0.08-0.01,0.143-0.014,0.183H174.217z M175.366,36.596c0.004-0.249-0.103-0.637-0.544-0.637c-0.396,0-0.57,0.365-0.602,0.637
		H175.366z"/>
	<path fill="#83CCCD" d="M176.705,35.108v0.619h0.562v0.298h-0.562v1.163c0,0.268,0.075,0.419,0.294,0.419
		c0.103,0,0.178-0.014,0.228-0.026l0.018,0.294c-0.076,0.031-0.196,0.054-0.348,0.054c-0.183,0-0.33-0.059-0.424-0.165
		c-0.111-0.116-0.151-0.308-0.151-0.562v-1.177h-0.334v-0.298h0.334V35.21L176.705,35.108z"/>
	<path fill="#83CCCD" d="M179.514,37.296c0,0.223,0.004,0.419,0.018,0.588h-0.348l-0.022-0.352h-0.009
		c-0.103,0.174-0.329,0.4-0.713,0.4c-0.338,0-0.744-0.187-0.744-0.944v-1.261h0.393v1.193c0,0.41,0.125,0.687,0.481,0.687
		c0.263,0,0.445-0.183,0.517-0.356c0.022-0.058,0.035-0.129,0.035-0.2v-1.323h0.393V37.296z"/>
	<path fill="#83CCCD" d="M180.166,36.4c0-0.254-0.004-0.473-0.018-0.673h0.343l0.014,0.423h0.018
		c0.098-0.289,0.334-0.472,0.597-0.472c0.045,0,0.076,0.004,0.111,0.013v0.37c-0.04-0.009-0.08-0.014-0.133-0.014
		c-0.276,0-0.473,0.21-0.526,0.504c-0.009,0.054-0.018,0.115-0.018,0.183v1.149h-0.388V36.4z"/>
	<path fill="#83CCCD" d="M183.764,37.884l-0.031-0.271h-0.014c-0.12,0.169-0.352,0.32-0.659,0.32c-0.437,0-0.659-0.308-0.659-0.619
		c0-0.521,0.463-0.807,1.296-0.802v-0.045c0-0.178-0.049-0.499-0.489-0.499c-0.201,0-0.41,0.062-0.562,0.16l-0.09-0.258
		c0.179-0.116,0.437-0.191,0.709-0.191c0.659,0,0.819,0.449,0.819,0.882v0.807c0,0.187,0.009,0.369,0.036,0.517H183.764z
		 M183.705,36.783c-0.428-0.009-0.913,0.067-0.913,0.485c0,0.254,0.17,0.375,0.37,0.375c0.28,0,0.459-0.179,0.521-0.361
		c0.013-0.04,0.021-0.085,0.021-0.125V36.783z"/>
	<path fill="#83CCCD" d="M186.581,34.721v2.606c0,0.191,0.005,0.409,0.018,0.557h-0.352l-0.018-0.374h-0.009
		c-0.121,0.24-0.384,0.423-0.735,0.423c-0.521,0-0.923-0.441-0.923-1.096c-0.004-0.718,0.441-1.158,0.967-1.158
		c0.33,0,0.553,0.155,0.651,0.329h0.009v-1.287H186.581z M186.189,36.605c0-0.05-0.005-0.116-0.019-0.165
		c-0.058-0.25-0.271-0.455-0.565-0.455c-0.405,0-0.646,0.356-0.646,0.834c0,0.437,0.214,0.797,0.638,0.797
		c0.263,0,0.503-0.174,0.574-0.468c0.014-0.054,0.019-0.106,0.019-0.169V36.605z"/>
	<path fill="#83CCCD" d="M187.671,35.121c0.005,0.134-0.094,0.241-0.249,0.241c-0.139,0-0.236-0.107-0.236-0.241
		c0-0.138,0.103-0.245,0.245-0.245C187.577,34.876,187.671,34.983,187.671,35.121z M187.234,37.884v-2.156h0.393v2.156H187.234z"/>
	<path fill="#83CCCD" d="M188.278,36.432c0-0.276-0.009-0.499-0.018-0.704h0.352l0.019,0.369h0.009
		c0.16-0.263,0.414-0.418,0.766-0.418c0.521,0,0.914,0.44,0.914,1.096c0,0.775-0.473,1.158-0.98,1.158
		c-0.285,0-0.535-0.125-0.664-0.339h-0.009v1.172h-0.388V36.432z M188.666,37.006c0,0.058,0.009,0.111,0.018,0.16
		c0.071,0.272,0.308,0.459,0.588,0.459c0.415,0,0.655-0.338,0.655-0.833c0-0.432-0.228-0.802-0.642-0.802
		c-0.268,0-0.517,0.191-0.593,0.485c-0.013,0.049-0.026,0.107-0.026,0.16V37.006z"/>
	<path fill="#83CCCD" d="M191.252,35.121c0.005,0.134-0.094,0.241-0.249,0.241c-0.139,0-0.236-0.107-0.236-0.241
		c0-0.138,0.103-0.245,0.245-0.245C191.158,34.876,191.252,34.983,191.252,35.121z M190.815,37.884v-2.156h0.393v2.156H190.815z"/>
	<path fill="#83CCCD" d="M191.806,37.482c0.116,0.076,0.321,0.156,0.518,0.156c0.285,0,0.418-0.143,0.418-0.32
		c0-0.188-0.111-0.29-0.4-0.397c-0.388-0.138-0.57-0.352-0.57-0.61c0-0.347,0.28-0.632,0.744-0.632c0.218,0,0.409,0.062,0.53,0.133
		l-0.099,0.285c-0.084-0.053-0.24-0.124-0.44-0.124c-0.232,0-0.361,0.134-0.361,0.294c0,0.178,0.129,0.258,0.41,0.365
		c0.374,0.143,0.565,0.33,0.565,0.65c0,0.379-0.294,0.646-0.807,0.646c-0.235,0-0.454-0.059-0.605-0.147L191.806,37.482z"/>
	<path fill="#83CCCD" d="M195.162,37.804c-0.103,0.054-0.33,0.125-0.619,0.125c-0.65,0-1.074-0.441-1.074-1.101
		c0-0.664,0.455-1.146,1.159-1.146c0.231,0,0.437,0.058,0.543,0.111l-0.089,0.303c-0.094-0.053-0.24-0.102-0.454-0.102
		c-0.495,0-0.763,0.365-0.763,0.814c0,0.499,0.321,0.807,0.749,0.807c0.223,0,0.37-0.058,0.481-0.106L195.162,37.804z"/>
	<path fill="#83CCCD" d="M196.06,35.121c0.005,0.134-0.094,0.241-0.249,0.241c-0.139,0-0.236-0.107-0.236-0.241
		c0-0.138,0.103-0.245,0.245-0.245C195.966,34.876,196.06,34.983,196.06,35.121z M195.623,37.884v-2.156h0.393v2.156H195.623z"/>
	<path fill="#83CCCD" d="M196.667,36.311c0-0.223-0.005-0.405-0.018-0.583h0.348l0.022,0.356h0.009
		c0.106-0.205,0.356-0.405,0.713-0.405c0.298,0,0.762,0.178,0.762,0.917v1.288h-0.393v-1.243c0-0.348-0.129-0.637-0.499-0.637
		c-0.258,0-0.459,0.183-0.525,0.4c-0.018,0.049-0.026,0.116-0.026,0.183v1.297h-0.393V36.311z"/>
	<path fill="#83CCCD" d="M201.001,35.728c-0.009,0.155-0.019,0.329-0.019,0.593v1.252c0,0.494-0.098,0.797-0.307,0.984
		c-0.21,0.196-0.513,0.259-0.784,0.259c-0.259,0-0.544-0.062-0.718-0.179l0.098-0.299c0.143,0.09,0.365,0.17,0.633,0.17
		c0.401,0,0.695-0.21,0.695-0.753v-0.241h-0.009c-0.12,0.201-0.353,0.361-0.687,0.361c-0.534,0-0.918-0.454-0.918-1.052
		c0-0.73,0.478-1.145,0.972-1.145c0.374,0,0.579,0.195,0.673,0.374h0.009l0.018-0.325H201.001z M200.595,36.578
		c0-0.066-0.004-0.125-0.021-0.178c-0.071-0.228-0.264-0.415-0.549-0.415c-0.374,0-0.642,0.316-0.642,0.815
		c0,0.424,0.214,0.775,0.638,0.775c0.24,0,0.459-0.151,0.544-0.4c0.021-0.067,0.03-0.143,0.03-0.21V36.578z"/>
	<path fill="#83CCCD" d="M202.8,36.877c0.009,0.53,0.347,0.748,0.739,0.748c0.28,0,0.45-0.049,0.597-0.111l0.067,0.281
		c-0.139,0.062-0.374,0.134-0.718,0.134c-0.664,0-1.061-0.438-1.061-1.088s0.384-1.162,1.012-1.162c0.704,0,0.892,0.619,0.892,1.016
		c0,0.08-0.01,0.143-0.014,0.183H202.8z M203.949,36.596c0.004-0.249-0.103-0.637-0.544-0.637c-0.396,0-0.57,0.365-0.602,0.637
		H203.949z"/>
	<path fill="#83CCCD" d="M204.815,34.721h0.393v3.163h-0.393V34.721z"/>
	<path fill="#83CCCD" d="M206.305,35.121c0.005,0.134-0.094,0.241-0.249,0.241c-0.139,0-0.236-0.107-0.236-0.241
		c0-0.138,0.103-0.245,0.245-0.245C206.211,34.876,206.305,34.983,206.305,35.121z M205.868,37.884v-2.156h0.393v2.156H205.868z"/>
	<path fill="#83CCCD" d="M207.385,35.108v0.619h0.562v0.298h-0.562v1.163c0,0.268,0.075,0.419,0.294,0.419
		c0.103,0,0.178-0.014,0.228-0.026l0.018,0.294c-0.076,0.031-0.196,0.054-0.348,0.054c-0.183,0-0.33-0.059-0.424-0.165
		c-0.111-0.116-0.151-0.308-0.151-0.562v-1.177h-0.334v-0.298h0.334V35.21L207.385,35.108z"/>
	<path fill="#83CCCD" d="M208.282,37.652c0-0.165,0.111-0.281,0.268-0.281s0.263,0.116,0.263,0.281c0,0.16-0.103,0.28-0.268,0.28
		C208.39,37.933,208.282,37.812,208.282,37.652z"/>
	<path fill="#83CCCD" d="M210.258,34.921c0.236-0.036,0.517-0.062,0.824-0.062c0.557,0,0.953,0.129,1.216,0.374
		c0.268,0.245,0.424,0.593,0.424,1.078c0,0.49-0.151,0.892-0.433,1.168c-0.28,0.28-0.744,0.432-1.327,0.432
		c-0.276,0-0.509-0.013-0.704-0.035V34.921z M210.646,37.576c0.098,0.018,0.24,0.022,0.392,0.022c0.829,0,1.279-0.463,1.279-1.274
		c0.004-0.708-0.396-1.158-1.217-1.158c-0.2,0-0.352,0.018-0.454,0.04V37.576z"/>
	<path fill="#83CCCD" d="M215.183,36.788c0,0.797-0.552,1.145-1.073,1.145c-0.584,0-1.034-0.428-1.034-1.109
		c0-0.722,0.473-1.145,1.069-1.145C214.765,35.679,215.183,36.128,215.183,36.788z M213.472,36.81c0,0.473,0.272,0.829,0.655,0.829
		c0.374,0,0.655-0.352,0.655-0.838c0-0.365-0.183-0.828-0.646-0.828C213.673,35.973,213.472,36.4,213.472,36.81z"/>
	<path fill="#83CCCD" d="M215.68,36.311c0-0.223-0.004-0.405-0.018-0.583h0.348l0.021,0.356h0.01
		c0.106-0.205,0.356-0.405,0.713-0.405c0.298,0,0.762,0.178,0.762,0.917v1.288h-0.393v-1.243c0-0.348-0.129-0.637-0.499-0.637
		c-0.258,0-0.459,0.183-0.525,0.4c-0.018,0.049-0.026,0.116-0.026,0.183v1.297h-0.393V36.311z"/>
	<path fill="#83CCCD" d="M218.374,36.877c0.009,0.53,0.347,0.748,0.739,0.748c0.28,0,0.45-0.049,0.597-0.111l0.067,0.281
		c-0.139,0.062-0.374,0.134-0.718,0.134c-0.664,0-1.061-0.438-1.061-1.088s0.384-1.162,1.012-1.162c0.704,0,0.892,0.619,0.892,1.016
		c0,0.08-0.01,0.143-0.014,0.183H218.374z M219.523,36.596c0.004-0.249-0.103-0.637-0.544-0.637c-0.396,0-0.57,0.365-0.602,0.637
		H219.523z"/>
	<path fill="#83CCCD" d="M221.927,37.804c-0.103,0.054-0.329,0.125-0.619,0.125c-0.65,0-1.074-0.441-1.074-1.101
		c0-0.664,0.455-1.146,1.159-1.146c0.231,0,0.437,0.058,0.543,0.111l-0.089,0.303c-0.094-0.053-0.24-0.102-0.454-0.102
		c-0.495,0-0.763,0.365-0.763,0.814c0,0.499,0.321,0.807,0.749,0.807c0.223,0,0.37-0.058,0.481-0.106L221.927,37.804z"/>
	<path fill="#83CCCD" d="M223.484,35.728l0.424,1.212c0.071,0.196,0.129,0.374,0.174,0.552h0.013
		c0.049-0.178,0.111-0.355,0.183-0.552l0.419-1.212h0.41l-0.847,2.156h-0.374l-0.82-2.156H223.484z"/>
	<path fill="#83CCCD" d="M225.915,35.121c0.005,0.134-0.094,0.241-0.249,0.241c-0.139,0-0.236-0.107-0.236-0.241
		c0-0.138,0.103-0.245,0.245-0.245C225.821,34.876,225.915,34.983,225.915,35.121z M225.479,37.884v-2.156h0.393v2.156H225.479z"/>
	<path fill="#83CCCD" d="M226.995,35.108v0.619h0.562v0.298h-0.562v1.163c0,0.268,0.075,0.419,0.294,0.419
		c0.103,0,0.178-0.014,0.227-0.026l0.019,0.294c-0.076,0.031-0.196,0.054-0.348,0.054c-0.183,0-0.33-0.059-0.424-0.165
		c-0.111-0.116-0.151-0.308-0.151-0.562v-1.177h-0.334v-0.298h0.334V35.21L226.995,35.108z"/>
	<path fill="#83CCCD" d="M229.193,37.884l-0.031-0.271h-0.014c-0.12,0.169-0.352,0.32-0.659,0.32c-0.437,0-0.659-0.308-0.659-0.619
		c0-0.521,0.463-0.807,1.296-0.802v-0.045c0-0.178-0.049-0.499-0.489-0.499c-0.201,0-0.41,0.062-0.562,0.16l-0.09-0.258
		c0.179-0.116,0.437-0.191,0.709-0.191c0.659,0,0.819,0.449,0.819,0.882v0.807c0,0.187,0.009,0.369,0.036,0.517H229.193z
		 M229.135,36.783c-0.428-0.009-0.913,0.067-0.913,0.485c0,0.254,0.17,0.375,0.37,0.375c0.28,0,0.459-0.179,0.521-0.361
		c0.013-0.04,0.021-0.085,0.021-0.125V36.783z"/>
	<path fill="#83CCCD" d="M230.367,36.877c0.009,0.53,0.348,0.748,0.739,0.748c0.28,0,0.45-0.049,0.597-0.111l0.067,0.281
		c-0.139,0.062-0.374,0.134-0.718,0.134c-0.664,0-1.061-0.438-1.061-1.088s0.384-1.162,1.012-1.162c0.704,0,0.892,0.619,0.892,1.016
		c0,0.08-0.01,0.143-0.014,0.183H230.367z M231.517,36.596c0.004-0.249-0.103-0.637-0.544-0.637c-0.396,0-0.57,0.365-0.602,0.637
		H231.517z"/>
	<path fill="#83CCCD" d="M109.612,42.835c0.116,0.076,0.321,0.156,0.518,0.156c0.285,0,0.418-0.143,0.418-0.32
		c0-0.188-0.111-0.29-0.4-0.396c-0.388-0.139-0.57-0.353-0.57-0.611c0-0.347,0.28-0.632,0.744-0.632c0.218,0,0.409,0.062,0.53,0.133
		l-0.099,0.285c-0.084-0.053-0.24-0.124-0.44-0.124c-0.232,0-0.361,0.134-0.361,0.294c0,0.178,0.129,0.258,0.41,0.365
		c0.374,0.143,0.565,0.33,0.565,0.65c0,0.379-0.294,0.646-0.807,0.646c-0.235,0-0.454-0.059-0.605-0.147L109.612,42.835z"/>
	<path fill="#83CCCD" d="M111.65,42.229c0.009,0.53,0.348,0.748,0.739,0.748c0.28,0,0.45-0.049,0.597-0.111l0.067,0.281
		c-0.139,0.062-0.374,0.134-0.718,0.134c-0.664,0-1.061-0.437-1.061-1.088c0-0.65,0.384-1.162,1.012-1.162
		c0.704,0,0.892,0.619,0.892,1.016c0,0.08-0.01,0.143-0.014,0.183H111.65z M112.8,41.948c0.004-0.249-0.103-0.637-0.544-0.637
		c-0.396,0-0.57,0.365-0.602,0.637H112.8z"/>
	<path fill="#83CCCD" d="M113.666,41.663c0-0.223-0.004-0.405-0.018-0.583h0.343l0.018,0.348h0.014
		c0.12-0.205,0.321-0.396,0.678-0.396c0.294,0,0.517,0.178,0.61,0.432h0.009c0.066-0.12,0.151-0.214,0.24-0.28
		c0.129-0.099,0.271-0.151,0.477-0.151c0.285,0,0.709,0.187,0.709,0.936v1.27h-0.384v-1.221c0-0.414-0.151-0.664-0.468-0.664
		c-0.223,0-0.396,0.165-0.463,0.356c-0.018,0.054-0.031,0.125-0.031,0.196v1.332h-0.384v-1.292c0-0.343-0.151-0.593-0.449-0.593
		c-0.245,0-0.424,0.196-0.486,0.393c-0.021,0.058-0.031,0.124-0.031,0.191v1.301h-0.383V41.663z"/>
	<path fill="#83CCCD" d="M117.386,41.784c0-0.276-0.009-0.499-0.018-0.704h0.352l0.019,0.369h0.009
		c0.16-0.263,0.414-0.418,0.766-0.418c0.521,0,0.914,0.44,0.914,1.096c0,0.775-0.473,1.158-0.98,1.158
		c-0.285,0-0.535-0.125-0.664-0.339h-0.009v1.172h-0.388V41.784z M117.773,42.358c0,0.059,0.009,0.111,0.018,0.16
		c0.071,0.272,0.308,0.459,0.588,0.459c0.415,0,0.655-0.338,0.655-0.833c0-0.432-0.228-0.802-0.642-0.802
		c-0.268,0-0.517,0.191-0.593,0.485c-0.013,0.049-0.026,0.107-0.026,0.161V42.358z"/>
	<path fill="#83CCCD" d="M120.142,42.229c0.009,0.53,0.347,0.748,0.739,0.748c0.28,0,0.45-0.049,0.597-0.111l0.067,0.281
		c-0.139,0.062-0.374,0.134-0.718,0.134c-0.664,0-1.061-0.437-1.061-1.088c0-0.65,0.384-1.162,1.012-1.162
		c0.704,0,0.892,0.619,0.892,1.016c0,0.08-0.01,0.143-0.014,0.183H120.142z M121.291,41.948c0.004-0.249-0.103-0.637-0.544-0.637
		c-0.396,0-0.57,0.365-0.602,0.637H121.291z"/>
	<path fill="#83CCCD" d="M122.157,41.753c0-0.254-0.005-0.473-0.018-0.673h0.343l0.014,0.423h0.018
		c0.098-0.289,0.334-0.472,0.597-0.472c0.045,0,0.076,0.004,0.112,0.013v0.37c-0.041-0.009-0.081-0.014-0.134-0.014
		c-0.276,0-0.473,0.21-0.526,0.504c-0.009,0.054-0.018,0.115-0.018,0.183v1.149h-0.388V41.753z"/>
	<path fill="#83CCCD" d="M126.031,42.902h-0.009c-0.116,0.214-0.356,0.383-0.704,0.383c-0.504,0-0.914-0.437-0.914-1.092
		c0-0.806,0.521-1.162,0.977-1.162c0.334,0,0.557,0.164,0.663,0.374h0.009l0.014-0.325h0.37c-0.009,0.183-0.014,0.369-0.014,0.593
		v2.445h-0.392V42.902z M126.031,41.953c0-0.054-0.005-0.116-0.019-0.165c-0.058-0.24-0.267-0.445-0.561-0.445
		c-0.406,0-0.651,0.343-0.651,0.829c0,0.428,0.205,0.802,0.638,0.802c0.254,0,0.472-0.156,0.562-0.428
		c0.018-0.054,0.031-0.129,0.031-0.188V41.953z"/>
	<path fill="#83CCCD" d="M128.876,42.648c0,0.223,0.004,0.419,0.018,0.588h-0.348l-0.022-0.352h-0.009
		c-0.103,0.173-0.329,0.4-0.713,0.4c-0.338,0-0.744-0.187-0.744-0.944V41.08h0.393v1.194c0,0.409,0.125,0.686,0.481,0.686
		c0.263,0,0.445-0.183,0.517-0.356c0.022-0.058,0.035-0.129,0.035-0.2V41.08h0.393V42.648z"/>
	<path fill="#83CCCD" d="M130.723,43.236l-0.031-0.271h-0.014c-0.12,0.169-0.352,0.32-0.659,0.32c-0.437,0-0.659-0.308-0.659-0.619
		c0-0.521,0.463-0.807,1.296-0.802v-0.045c0-0.178-0.049-0.499-0.489-0.499c-0.201,0-0.41,0.062-0.562,0.16l-0.09-0.258
		c0.179-0.116,0.437-0.191,0.709-0.191c0.659,0,0.819,0.449,0.819,0.882v0.807c0,0.187,0.009,0.369,0.036,0.517H130.723z
		 M130.664,42.136c-0.428-0.009-0.913,0.066-0.913,0.485c0,0.254,0.17,0.375,0.37,0.375c0.28,0,0.459-0.179,0.521-0.361
		c0.013-0.04,0.021-0.085,0.021-0.125V42.136z"/>
	<path fill="#83CCCD" d="M131.678,41.663c0-0.223-0.004-0.405-0.018-0.583h0.343l0.018,0.348h0.014
		c0.12-0.205,0.321-0.396,0.678-0.396c0.294,0,0.517,0.178,0.61,0.432h0.009c0.066-0.12,0.151-0.214,0.24-0.28
		c0.129-0.099,0.271-0.151,0.477-0.151c0.285,0,0.709,0.187,0.709,0.936v1.27h-0.384v-1.221c0-0.414-0.151-0.664-0.468-0.664
		c-0.223,0-0.396,0.165-0.463,0.356c-0.018,0.054-0.031,0.125-0.031,0.196v1.332h-0.384v-1.292c0-0.343-0.151-0.593-0.449-0.593
		c-0.245,0-0.424,0.196-0.486,0.393c-0.021,0.058-0.031,0.124-0.031,0.191v1.301h-0.383V41.663z"/>
	<path fill="#83CCCD" d="M135.144,43.784c0.098-0.263,0.219-0.739,0.268-1.064l0.437-0.045c-0.103,0.379-0.299,0.873-0.424,1.083
		L135.144,43.784z"/>
	<path fill="#83CCCD" d="M138.736,42.902h-0.009c-0.116,0.214-0.356,0.383-0.704,0.383c-0.504,0-0.914-0.437-0.914-1.092
		c0-0.806,0.521-1.162,0.977-1.162c0.334,0,0.557,0.164,0.663,0.374h0.009l0.014-0.325h0.37c-0.009,0.183-0.014,0.369-0.014,0.593
		v2.445h-0.392V42.902z M138.736,41.953c0-0.054-0.005-0.116-0.019-0.165c-0.058-0.24-0.267-0.445-0.561-0.445
		c-0.406,0-0.651,0.343-0.651,0.829c0,0.428,0.205,0.802,0.638,0.802c0.254,0,0.472-0.156,0.562-0.428
		c0.018-0.054,0.031-0.129,0.031-0.188V41.953z"/>
	<path fill="#83CCCD" d="M141.581,42.648c0,0.223,0.004,0.419,0.018,0.588h-0.348l-0.022-0.352h-0.009
		c-0.103,0.173-0.329,0.4-0.713,0.4c-0.338,0-0.744-0.187-0.744-0.944V41.08h0.393v1.194c0,0.409,0.125,0.686,0.481,0.686
		c0.263,0,0.445-0.183,0.517-0.356c0.022-0.058,0.035-0.129,0.035-0.2V41.08h0.393V42.648z"/>
	<path fill="#83CCCD" d="M142.67,40.474c0.005,0.134-0.094,0.241-0.249,0.241c-0.139,0-0.236-0.107-0.236-0.241
		c0-0.138,0.103-0.245,0.245-0.245C142.576,40.229,142.67,40.336,142.67,40.474z M142.233,43.236V41.08h0.393v2.156H142.233z"/>
	<path fill="#83CCCD" d="M143.224,42.835c0.116,0.076,0.321,0.156,0.518,0.156c0.285,0,0.418-0.143,0.418-0.32
		c0-0.188-0.111-0.29-0.4-0.396c-0.388-0.139-0.57-0.353-0.57-0.611c0-0.347,0.28-0.632,0.744-0.632c0.218,0,0.409,0.062,0.53,0.133
		l-0.099,0.285c-0.084-0.053-0.24-0.124-0.44-0.124c-0.232,0-0.361,0.134-0.361,0.294c0,0.178,0.129,0.258,0.41,0.365
		c0.374,0.143,0.565,0.33,0.565,0.65c0,0.379-0.294,0.646-0.807,0.646c-0.235,0-0.454-0.059-0.605-0.147L143.224,42.835z"/>
	<path fill="#83CCCD" d="M145.988,41.784c0-0.276-0.009-0.499-0.018-0.704h0.352l0.018,0.369h0.01
		c0.16-0.263,0.414-0.418,0.766-0.418c0.521,0,0.914,0.44,0.914,1.096c0,0.775-0.473,1.158-0.98,1.158
		c-0.285,0-0.535-0.125-0.664-0.339h-0.009v1.172h-0.388V41.784z M146.376,42.358c0,0.059,0.009,0.111,0.018,0.16
		c0.071,0.272,0.308,0.459,0.589,0.459c0.414,0,0.654-0.338,0.654-0.833c0-0.432-0.227-0.802-0.642-0.802
		c-0.268,0-0.517,0.191-0.593,0.485c-0.013,0.049-0.026,0.107-0.026,0.161V42.358z"/>
	<path fill="#83CCCD" d="M150.477,42.141c0,0.797-0.552,1.145-1.073,1.145c-0.584,0-1.034-0.428-1.034-1.109
		c0-0.722,0.473-1.145,1.069-1.145C150.059,41.031,150.477,41.48,150.477,42.141z M148.766,42.162c0,0.473,0.272,0.829,0.655,0.829
		c0.374,0,0.655-0.352,0.655-0.838c0-0.365-0.183-0.828-0.646-0.828C148.967,41.325,148.766,41.753,148.766,42.162z"/>
	<path fill="#83CCCD" d="M150.974,41.753c0-0.254-0.005-0.473-0.018-0.673h0.343l0.014,0.423h0.018
		c0.098-0.289,0.334-0.472,0.597-0.472c0.045,0,0.076,0.004,0.112,0.013v0.37c-0.041-0.009-0.081-0.014-0.134-0.014
		c-0.276,0-0.473,0.21-0.526,0.504c-0.009,0.054-0.018,0.115-0.018,0.183v1.149h-0.388V41.753z"/>
	<path fill="#83CCCD" d="M153.012,40.461v0.619h0.562v0.298h-0.562v1.163c0,0.268,0.075,0.419,0.294,0.419
		c0.103,0,0.178-0.014,0.228-0.026l0.018,0.294c-0.076,0.031-0.196,0.054-0.348,0.054c-0.183,0-0.33-0.059-0.424-0.165
		c-0.111-0.116-0.151-0.308-0.151-0.562v-1.177h-0.334V41.08h0.334v-0.517L153.012,40.461z"/>
	<path fill="#83CCCD" d="M154.488,40.461v0.619h0.562v0.298h-0.562v1.163c0,0.268,0.075,0.419,0.294,0.419
		c0.103,0,0.178-0.014,0.228-0.026l0.018,0.294c-0.076,0.031-0.196,0.054-0.348,0.054c-0.183,0-0.33-0.059-0.424-0.165
		c-0.111-0.116-0.151-0.308-0.151-0.562v-1.177h-0.334V41.08h0.334v-0.517L154.488,40.461z"/>
	<path fill="#83CCCD" d="M155.929,40.474c0.005,0.134-0.094,0.241-0.249,0.241c-0.139,0-0.236-0.107-0.236-0.241
		c0-0.138,0.103-0.245,0.245-0.245C155.835,40.229,155.929,40.336,155.929,40.474z M155.492,43.236V41.08h0.393v2.156H155.492z"/>
	<path fill="#83CCCD" d="M157.009,40.461v0.619h0.562v0.298h-0.562v1.163c0,0.268,0.075,0.419,0.294,0.419
		c0.103,0,0.178-0.014,0.227-0.026l0.019,0.294c-0.076,0.031-0.196,0.054-0.348,0.054c-0.183,0-0.33-0.059-0.424-0.165
		c-0.111-0.116-0.151-0.308-0.151-0.562v-1.177h-0.334V41.08h0.334v-0.517L157.009,40.461z"/>
	<path fill="#83CCCD" d="M159.937,42.141c0,0.797-0.552,1.145-1.073,1.145c-0.584,0-1.034-0.428-1.034-1.109
		c0-0.722,0.473-1.145,1.069-1.145C159.519,41.031,159.937,41.48,159.937,42.141z M158.226,42.162c0,0.473,0.272,0.829,0.655,0.829
		c0.374,0,0.655-0.352,0.655-0.838c0-0.365-0.183-0.828-0.646-0.828C158.427,41.325,158.226,41.753,158.226,42.162z"/>
	<path fill="#83CCCD" d="M160.434,41.753c0-0.254-0.004-0.473-0.018-0.673h0.343l0.014,0.423h0.018
		c0.098-0.289,0.334-0.472,0.597-0.472c0.045,0,0.076,0.004,0.111,0.013v0.37c-0.04-0.009-0.08-0.014-0.133-0.014
		c-0.276,0-0.473,0.21-0.526,0.504c-0.009,0.054-0.018,0.115-0.018,0.183v1.149h-0.388V41.753z"/>
	<path fill="#83CCCD" d="M164.699,40.073v2.606c0,0.191,0.005,0.409,0.018,0.557h-0.352l-0.018-0.374h-0.009
		c-0.121,0.24-0.384,0.423-0.735,0.423c-0.521,0-0.923-0.44-0.923-1.096c-0.004-0.718,0.441-1.158,0.967-1.158
		c0.33,0,0.553,0.155,0.651,0.329h0.009v-1.287H164.699z M164.308,41.958c0-0.05-0.005-0.116-0.019-0.165
		c-0.058-0.25-0.271-0.455-0.565-0.455c-0.405,0-0.646,0.356-0.646,0.834c0,0.437,0.214,0.797,0.638,0.797
		c0.263,0,0.503-0.174,0.574-0.468c0.014-0.054,0.019-0.106,0.019-0.169V41.958z"/>
	<path fill="#83CCCD" d="M167.157,42.648c0,0.223,0.004,0.419,0.018,0.588h-0.348l-0.022-0.352h-0.009
		c-0.103,0.173-0.329,0.4-0.713,0.4c-0.338,0-0.744-0.187-0.744-0.944V41.08h0.393v1.194c0,0.409,0.125,0.686,0.481,0.686
		c0.263,0,0.445-0.183,0.517-0.356c0.022-0.058,0.035-0.129,0.035-0.2V41.08h0.393V42.648z"/>
	<path fill="#83CCCD" d="M168.246,40.474c0.005,0.134-0.094,0.241-0.249,0.241c-0.139,0-0.236-0.107-0.236-0.241
		c0-0.138,0.103-0.245,0.245-0.245C168.152,40.229,168.246,40.336,168.246,40.474z M167.81,43.236V41.08h0.393v2.156H167.81z"/>
	<path fill="#83CCCD" d="M168.76,43.005c0-0.165,0.111-0.281,0.268-0.281s0.263,0.116,0.263,0.281c0,0.16-0.103,0.28-0.268,0.28
		C168.867,43.285,168.76,43.165,168.76,43.005z"/>
	<path fill="#83CCCD" d="M172.29,41.828h-1.167v1.083h1.301v0.325h-1.688v-3.003h1.622v0.325h-1.234v0.949h1.167V41.828z"/>
	<path fill="#83CCCD" d="M173.376,40.461v0.619h0.562v0.298h-0.562v1.163c0,0.268,0.075,0.419,0.294,0.419
		c0.103,0,0.178-0.014,0.227-0.026l0.019,0.294c-0.076,0.031-0.196,0.054-0.348,0.054c-0.183,0-0.33-0.059-0.424-0.165
		c-0.111-0.116-0.151-0.308-0.151-0.562v-1.177h-0.334V41.08h0.334v-0.517L173.376,40.461z"/>
	<path fill="#83CCCD" d="M174.816,40.474c0.005,0.134-0.094,0.241-0.249,0.241c-0.139,0-0.236-0.107-0.236-0.241
		c0-0.138,0.103-0.245,0.245-0.245C174.723,40.229,174.816,40.336,174.816,40.474z M174.38,43.236V41.08h0.393v2.156H174.38z"/>
	<path fill="#83CCCD" d="M176.617,43.236l-0.031-0.271h-0.014c-0.12,0.169-0.352,0.32-0.659,0.32c-0.437,0-0.659-0.308-0.659-0.619
		c0-0.521,0.463-0.807,1.296-0.802v-0.045c0-0.178-0.049-0.499-0.489-0.499c-0.201,0-0.41,0.062-0.562,0.16l-0.09-0.258
		c0.179-0.116,0.437-0.191,0.709-0.191c0.659,0,0.819,0.449,0.819,0.882v0.807c0,0.187,0.009,0.369,0.036,0.517H176.617z
		 M176.559,42.136c-0.428-0.009-0.913,0.066-0.913,0.485c0,0.254,0.17,0.375,0.37,0.375c0.28,0,0.459-0.179,0.521-0.361
		c0.013-0.04,0.021-0.085,0.021-0.125V42.136z"/>
	<path fill="#83CCCD" d="M177.573,41.663c0-0.223-0.005-0.405-0.018-0.583h0.343l0.018,0.348h0.014
		c0.12-0.205,0.321-0.396,0.678-0.396c0.294,0,0.517,0.178,0.61,0.432h0.009c0.066-0.12,0.151-0.214,0.24-0.28
		c0.129-0.099,0.271-0.151,0.477-0.151c0.285,0,0.709,0.187,0.709,0.936v1.27h-0.384v-1.221c0-0.414-0.151-0.664-0.468-0.664
		c-0.223,0-0.396,0.165-0.463,0.356c-0.018,0.054-0.031,0.125-0.031,0.196v1.332h-0.383v-1.292c0-0.343-0.152-0.593-0.45-0.593
		c-0.245,0-0.424,0.196-0.486,0.393c-0.021,0.058-0.031,0.124-0.031,0.191v1.301h-0.383V41.663z"/>
	<path fill="#83CCCD" d="M184.042,42.648c0,0.223,0.004,0.419,0.018,0.588h-0.348l-0.022-0.352h-0.009
		c-0.103,0.173-0.329,0.4-0.713,0.4c-0.338,0-0.744-0.187-0.744-0.944V41.08h0.393v1.194c0,0.409,0.125,0.686,0.481,0.686
		c0.263,0,0.445-0.183,0.517-0.356c0.022-0.058,0.035-0.129,0.035-0.2V41.08h0.393V42.648z"/>
	<path fill="#83CCCD" d="M185.167,40.461v0.619h0.562v0.298h-0.562v1.163c0,0.268,0.075,0.419,0.294,0.419
		c0.103,0,0.178-0.014,0.227-0.026l0.019,0.294c-0.076,0.031-0.196,0.054-0.348,0.054c-0.183,0-0.33-0.059-0.424-0.165
		c-0.111-0.116-0.151-0.308-0.151-0.562v-1.177h-0.334V41.08h0.334v-0.517L185.167,40.461z"/>
	<path fill="#83CCCD" d="M188.311,43.236l-0.031-0.271h-0.014c-0.12,0.169-0.352,0.32-0.659,0.32c-0.437,0-0.659-0.308-0.659-0.619
		c0-0.521,0.463-0.807,1.296-0.802v-0.045c0-0.178-0.049-0.499-0.489-0.499c-0.201,0-0.41,0.062-0.562,0.16l-0.09-0.258
		c0.179-0.116,0.437-0.191,0.709-0.191c0.659,0,0.819,0.449,0.819,0.882v0.807c0,0.187,0.009,0.369,0.036,0.517H188.311z
		 M188.252,42.136c-0.428-0.009-0.913,0.066-0.913,0.485c0,0.254,0.17,0.375,0.37,0.375c0.28,0,0.459-0.179,0.521-0.361
		c0.013-0.04,0.021-0.085,0.021-0.125V42.136z"/>
	<path fill="#83CCCD" d="M191.071,42.648c0,0.223,0.004,0.419,0.018,0.588h-0.348l-0.022-0.352h-0.009
		c-0.103,0.173-0.329,0.4-0.713,0.4c-0.338,0-0.744-0.187-0.744-0.944V41.08h0.393v1.194c0,0.409,0.125,0.686,0.481,0.686
		c0.263,0,0.445-0.183,0.517-0.356c0.022-0.058,0.035-0.129,0.035-0.2V41.08h0.393V42.648z"/>
	<path fill="#83CCCD" d="M193.582,41.08c-0.01,0.155-0.019,0.329-0.019,0.593v1.252c0,0.494-0.098,0.797-0.307,0.984
		c-0.21,0.196-0.513,0.259-0.784,0.259c-0.259,0-0.544-0.062-0.718-0.179l0.098-0.299c0.143,0.09,0.366,0.17,0.633,0.17
		c0.401,0,0.695-0.21,0.695-0.753v-0.241h-0.009c-0.12,0.201-0.353,0.361-0.687,0.361c-0.534,0-0.918-0.455-0.918-1.052
		c0-0.73,0.478-1.145,0.972-1.145c0.374,0,0.579,0.195,0.673,0.374h0.009l0.018-0.325H193.582z M193.176,41.931
		c0-0.066-0.004-0.125-0.021-0.178c-0.071-0.228-0.264-0.415-0.549-0.415c-0.374,0-0.642,0.316-0.642,0.815
		c0,0.424,0.214,0.775,0.638,0.775c0.24,0,0.459-0.151,0.543-0.4c0.022-0.067,0.031-0.143,0.031-0.21V41.931z"/>
	<path fill="#83CCCD" d="M196.021,42.648c0,0.223,0.004,0.419,0.018,0.588h-0.348l-0.022-0.352h-0.009
		c-0.103,0.173-0.329,0.4-0.713,0.4c-0.338,0-0.744-0.187-0.744-0.944V41.08h0.393v1.194c0,0.409,0.125,0.686,0.481,0.686
		c0.263,0,0.445-0.183,0.517-0.356c0.022-0.058,0.035-0.129,0.035-0.2V41.08h0.393V42.648z"/>
	<path fill="#83CCCD" d="M196.892,42.229c0.009,0.53,0.347,0.748,0.739,0.748c0.28,0,0.45-0.049,0.597-0.111l0.067,0.281
		c-0.139,0.062-0.374,0.134-0.718,0.134c-0.664,0-1.061-0.437-1.061-1.088c0-0.65,0.384-1.162,1.012-1.162
		c0.704,0,0.892,0.619,0.892,1.016c0,0.08-0.01,0.143-0.014,0.183H196.892z M198.041,41.948c0.004-0.249-0.103-0.637-0.544-0.637
		c-0.396,0-0.57,0.365-0.602,0.637H198.041z"/>
	<path fill="#83CCCD" d="M199.853,41.784c0-0.276-0.009-0.499-0.018-0.704h0.352l0.019,0.369h0.009
		c0.16-0.263,0.414-0.418,0.766-0.418c0.521,0,0.914,0.44,0.914,1.096c0,0.775-0.473,1.158-0.98,1.158
		c-0.285,0-0.535-0.125-0.664-0.339h-0.009v1.172h-0.388V41.784z M200.24,42.358c0,0.059,0.009,0.111,0.018,0.16
		c0.071,0.272,0.308,0.459,0.588,0.459c0.415,0,0.655-0.338,0.655-0.833c0-0.432-0.228-0.802-0.642-0.802
		c-0.268,0-0.517,0.191-0.593,0.485c-0.013,0.049-0.026,0.107-0.026,0.161V42.358z"/>
	<path fill="#83CCCD" d="M202.39,40.073h0.393v1.346h0.009c0.062-0.112,0.16-0.21,0.28-0.276c0.116-0.067,0.254-0.111,0.401-0.111
		c0.289,0,0.753,0.178,0.753,0.922v1.283h-0.393v-1.238c0-0.348-0.129-0.642-0.499-0.642c-0.254,0-0.454,0.178-0.525,0.392
		c-0.022,0.054-0.026,0.111-0.026,0.188v1.301h-0.393V40.073z"/>
	<path fill="#83CCCD" d="M206.061,43.236l-0.031-0.271h-0.014c-0.12,0.169-0.352,0.32-0.659,0.32c-0.437,0-0.659-0.308-0.659-0.619
		c0-0.521,0.463-0.807,1.296-0.802v-0.045c0-0.178-0.049-0.499-0.489-0.499c-0.201,0-0.41,0.062-0.562,0.16l-0.09-0.258
		c0.179-0.116,0.437-0.191,0.709-0.191c0.659,0,0.819,0.449,0.819,0.882v0.807c0,0.187,0.009,0.369,0.036,0.517H206.061z
		 M206.002,42.136c-0.428-0.009-0.913,0.066-0.913,0.485c0,0.254,0.17,0.375,0.37,0.375c0.28,0,0.459-0.179,0.521-0.361
		c0.013-0.04,0.021-0.085,0.021-0.125V42.136z"/>
	<path fill="#83CCCD" d="M207.015,41.753c0-0.254-0.005-0.473-0.018-0.673h0.343l0.014,0.423h0.018
		c0.098-0.289,0.334-0.472,0.597-0.472c0.045,0,0.076,0.004,0.112,0.013v0.37c-0.041-0.009-0.081-0.014-0.134-0.014
		c-0.276,0-0.473,0.21-0.526,0.504c-0.009,0.054-0.018,0.115-0.018,0.183v1.149h-0.388V41.753z"/>
	<path fill="#83CCCD" d="M208.647,42.229c0.009,0.53,0.347,0.748,0.739,0.748c0.28,0,0.45-0.049,0.597-0.111l0.067,0.281
		c-0.139,0.062-0.374,0.134-0.718,0.134c-0.664,0-1.061-0.437-1.061-1.088c0-0.65,0.384-1.162,1.012-1.162
		c0.704,0,0.892,0.619,0.892,1.016c0,0.08-0.01,0.143-0.014,0.183H208.647z M209.797,41.948c0.004-0.249-0.103-0.637-0.544-0.637
		c-0.396,0-0.57,0.365-0.602,0.637H209.797z"/>
	<path fill="#83CCCD" d="M211.136,40.461v0.619h0.562v0.298h-0.562v1.163c0,0.268,0.075,0.419,0.294,0.419
		c0.103,0,0.178-0.014,0.227-0.026l0.019,0.294c-0.076,0.031-0.196,0.054-0.348,0.054c-0.183,0-0.33-0.059-0.424-0.165
		c-0.111-0.116-0.151-0.308-0.151-0.562v-1.177h-0.334V41.08h0.334v-0.517L211.136,40.461z"/>
	<path fill="#83CCCD" d="M212.14,41.753c0-0.254-0.005-0.473-0.018-0.673h0.343l0.014,0.423h0.018
		c0.098-0.289,0.334-0.472,0.597-0.472c0.045,0,0.076,0.004,0.112,0.013v0.37c-0.041-0.009-0.081-0.014-0.134-0.014
		c-0.276,0-0.473,0.21-0.526,0.504c-0.009,0.054-0.018,0.115-0.018,0.183v1.149h-0.388V41.753z"/>
	<path fill="#83CCCD" d="M214.77,43.236l-0.031-0.271h-0.014c-0.12,0.169-0.352,0.32-0.659,0.32c-0.437,0-0.659-0.308-0.659-0.619
		c0-0.521,0.463-0.807,1.296-0.802v-0.045c0-0.178-0.049-0.499-0.489-0.499c-0.201,0-0.41,0.062-0.562,0.16l-0.09-0.258
		c0.179-0.116,0.437-0.191,0.709-0.191c0.659,0,0.819,0.449,0.819,0.882v0.807c0,0.187,0.009,0.369,0.036,0.517H214.77z
		 M214.711,42.136c-0.428-0.009-0.913,0.066-0.913,0.485c0,0.254,0.17,0.375,0.37,0.375c0.28,0,0.459-0.179,0.521-0.361
		c0.013-0.04,0.021-0.085,0.021-0.125V42.136z"/>
	<path fill="#83CCCD" d="M215.471,43.784c0.098-0.263,0.219-0.739,0.268-1.064l0.437-0.045c-0.103,0.379-0.299,0.873-0.424,1.083
		L215.471,43.784z"/>
	<path fill="#83CCCD" d="M217.593,40.073h0.393v3.163h-0.393V40.073z"/>
	<path fill="#83CCCD" d="M219.84,43.236l-0.031-0.271h-0.014c-0.12,0.169-0.352,0.32-0.659,0.32c-0.437,0-0.659-0.308-0.659-0.619
		c0-0.521,0.463-0.807,1.296-0.802v-0.045c0-0.178-0.049-0.499-0.489-0.499c-0.201,0-0.41,0.062-0.562,0.16l-0.09-0.258
		c0.179-0.116,0.437-0.191,0.709-0.191c0.659,0,0.819,0.449,0.819,0.882v0.807c0,0.187,0.009,0.369,0.036,0.517H219.84z
		 M219.781,42.136c-0.428-0.009-0.913,0.066-0.913,0.485c0,0.254,0.17,0.375,0.37,0.375c0.28,0,0.459-0.179,0.521-0.361
		c0.013-0.04,0.021-0.085,0.021-0.125V42.136z"/>
	<path fill="#83CCCD" d="M222.332,43.156c-0.103,0.054-0.33,0.125-0.619,0.125c-0.65,0-1.074-0.441-1.074-1.101
		c0-0.664,0.455-1.146,1.159-1.146c0.231,0,0.437,0.058,0.543,0.111l-0.089,0.303c-0.094-0.053-0.24-0.103-0.454-0.103
		c-0.495,0-0.763,0.366-0.763,0.815c0,0.499,0.321,0.807,0.749,0.807c0.223,0,0.37-0.058,0.481-0.106L222.332,43.156z"/>
	<path fill="#83CCCD" d="M223.229,40.474c0.005,0.134-0.094,0.241-0.249,0.241c-0.139,0-0.236-0.107-0.236-0.241
		c0-0.138,0.103-0.245,0.245-0.245C223.136,40.229,223.229,40.336,223.229,40.474z M222.793,43.236V41.08h0.393v2.156H222.793z"/>
	<path fill="#83CCCD" d="M223.837,41.663c0-0.223-0.005-0.405-0.018-0.583h0.348l0.022,0.356h0.009
		c0.106-0.205,0.356-0.405,0.713-0.405c0.298,0,0.762,0.178,0.762,0.917v1.288h-0.393v-1.243c0-0.348-0.129-0.637-0.499-0.637
		c-0.258,0-0.459,0.183-0.525,0.4c-0.018,0.049-0.026,0.116-0.026,0.183v1.297h-0.393V41.663z"/>
	<path fill="#83CCCD" d="M226.749,40.474c0.005,0.134-0.094,0.241-0.249,0.241c-0.139,0-0.236-0.107-0.236-0.241
		c0-0.138,0.103-0.245,0.245-0.245C226.655,40.229,226.749,40.336,226.749,40.474z M226.312,43.236V41.08h0.393v2.156H226.312z"/>
	<path fill="#83CCCD" d="M228.551,43.236l-0.031-0.271h-0.014c-0.12,0.169-0.352,0.32-0.659,0.32c-0.437,0-0.659-0.308-0.659-0.619
		c0-0.521,0.463-0.807,1.296-0.802v-0.045c0-0.178-0.049-0.499-0.489-0.499c-0.201,0-0.41,0.062-0.562,0.16l-0.09-0.258
		c0.179-0.116,0.437-0.191,0.709-0.191c0.659,0,0.819,0.449,0.819,0.882v0.807c0,0.187,0.009,0.369,0.036,0.517H228.551z
		 M228.492,42.136c-0.428-0.009-0.913,0.066-0.913,0.485c0,0.254,0.17,0.375,0.37,0.375c0.28,0,0.459-0.179,0.521-0.361
		c0.013-0.04,0.021-0.085,0.021-0.125V42.136z"/>
	<path fill="#83CCCD" d="M154.867,47.015c0-0.223-0.004-0.405-0.018-0.583h0.343l0.018,0.348h0.014
		c0.12-0.205,0.321-0.396,0.678-0.396c0.294,0,0.517,0.178,0.61,0.432h0.009c0.066-0.12,0.151-0.214,0.24-0.28
		c0.129-0.099,0.271-0.151,0.477-0.151c0.285,0,0.709,0.187,0.709,0.936v1.27h-0.384v-1.221c0-0.414-0.151-0.664-0.468-0.664
		c-0.223,0-0.396,0.165-0.463,0.356c-0.018,0.054-0.031,0.125-0.031,0.196v1.332h-0.384v-1.292c0-0.343-0.151-0.593-0.449-0.593
		c-0.245,0-0.424,0.196-0.486,0.393c-0.021,0.058-0.031,0.124-0.031,0.191v1.301h-0.383V47.015z"/>
	<path fill="#83CCCD" d="M159.781,48.588l-0.031-0.271h-0.014c-0.12,0.169-0.352,0.32-0.659,0.32c-0.437,0-0.659-0.308-0.659-0.619
		c0-0.521,0.463-0.807,1.296-0.802v-0.045c0-0.178-0.049-0.499-0.489-0.499c-0.201,0-0.41,0.062-0.562,0.16l-0.09-0.258
		c0.179-0.116,0.437-0.191,0.709-0.191c0.659,0,0.819,0.449,0.819,0.882v0.807c0,0.187,0.009,0.369,0.036,0.517H159.781z
		 M159.723,47.487c-0.428-0.009-0.913,0.066-0.913,0.485c0,0.254,0.17,0.375,0.37,0.375c0.28,0,0.459-0.179,0.521-0.361
		c0.013-0.04,0.021-0.085,0.021-0.125V47.487z"/>
	<path fill="#83CCCD" d="M162.541,48c0,0.223,0.004,0.419,0.018,0.588h-0.348l-0.022-0.352h-0.009c-0.103,0.173-0.329,0.4-0.713,0.4
		c-0.338,0-0.744-0.187-0.744-0.944v-1.261h0.393v1.194c0,0.409,0.125,0.686,0.481,0.686c0.263,0,0.445-0.183,0.517-0.356
		c0.022-0.058,0.035-0.129,0.035-0.2v-1.323h0.393V48z"/>
	<path fill="#83CCCD" d="M163.193,47.104c0-0.254-0.004-0.473-0.018-0.673h0.343l0.014,0.423h0.018
		c0.098-0.289,0.334-0.472,0.597-0.472c0.045,0,0.076,0.004,0.111,0.013v0.37c-0.04-0.009-0.08-0.014-0.133-0.014
		c-0.276,0-0.473,0.21-0.526,0.504c-0.009,0.054-0.018,0.115-0.018,0.183v1.149h-0.388V47.104z"/>
	<path fill="#83CCCD" d="M165.105,45.825c0.005,0.134-0.094,0.241-0.249,0.241c-0.139,0-0.236-0.107-0.236-0.241
		c0-0.138,0.103-0.245,0.245-0.245C165.012,45.58,165.105,45.688,165.105,45.825z M164.669,48.588v-2.156h0.393v2.156H164.669z"/>
	<path fill="#83CCCD" d="M165.659,48.187c0.116,0.076,0.321,0.156,0.518,0.156c0.285,0,0.418-0.143,0.418-0.32
		c0-0.188-0.111-0.29-0.4-0.396c-0.388-0.139-0.57-0.353-0.57-0.611c0-0.347,0.28-0.632,0.744-0.632c0.218,0,0.409,0.062,0.53,0.133
		l-0.099,0.285c-0.084-0.053-0.24-0.124-0.44-0.124c-0.232,0-0.361,0.134-0.361,0.294c0,0.178,0.129,0.258,0.41,0.365
		c0.374,0.143,0.565,0.33,0.565,0.65c0,0.379-0.294,0.646-0.807,0.646c-0.235,0-0.454-0.059-0.605-0.147L165.659,48.187z"/>
	<path fill="#83CCCD" d="M170.286,45.425v2.606c0,0.191,0.005,0.409,0.018,0.557h-0.352l-0.018-0.374h-0.009
		c-0.121,0.24-0.384,0.423-0.735,0.423c-0.521,0-0.923-0.44-0.923-1.096c-0.004-0.718,0.441-1.158,0.967-1.158
		c0.33,0,0.553,0.155,0.651,0.329h0.009v-1.287H170.286z M169.895,47.31c0-0.05-0.005-0.116-0.019-0.165
		c-0.058-0.25-0.271-0.455-0.565-0.455c-0.405,0-0.646,0.356-0.646,0.834c0,0.437,0.214,0.797,0.638,0.797
		c0.263,0,0.503-0.174,0.574-0.468c0.014-0.054,0.019-0.106,0.019-0.169V47.31z"/>
	<path fill="#83CCCD" d="M172.134,48.588l-0.031-0.271h-0.014c-0.12,0.169-0.352,0.32-0.659,0.32c-0.437,0-0.659-0.308-0.659-0.619
		c0-0.521,0.463-0.807,1.296-0.802v-0.045c0-0.178-0.049-0.499-0.49-0.499c-0.2,0-0.409,0.062-0.561,0.16l-0.09-0.258
		c0.179-0.116,0.438-0.191,0.709-0.191c0.659,0,0.819,0.449,0.819,0.882v0.807c0,0.187,0.009,0.369,0.036,0.517H172.134z
		 M172.076,47.487c-0.428-0.009-0.914,0.066-0.914,0.485c0,0.254,0.17,0.375,0.37,0.375c0.28,0,0.459-0.179,0.521-0.361
		c0.013-0.04,0.022-0.085,0.022-0.125V47.487z"/>
	<path fill="#83CCCD" d="M173.089,47.136c0-0.276-0.009-0.499-0.018-0.704h0.352l0.019,0.369h0.009
		c0.16-0.263,0.414-0.418,0.766-0.418c0.521,0,0.914,0.44,0.914,1.096c0,0.775-0.473,1.158-0.98,1.158
		c-0.285,0-0.535-0.125-0.664-0.339h-0.009v1.172h-0.388V47.136z M173.477,47.71c0,0.059,0.009,0.111,0.018,0.16
		c0.071,0.272,0.308,0.459,0.588,0.459c0.415,0,0.655-0.338,0.655-0.833c0-0.432-0.228-0.802-0.642-0.802
		c-0.268,0-0.517,0.191-0.593,0.485c-0.013,0.049-0.026,0.107-0.026,0.161V47.71z"/>
	<path fill="#83CCCD" d="M176.062,45.825c0.005,0.134-0.094,0.241-0.249,0.241c-0.139,0-0.236-0.107-0.236-0.241
		c0-0.138,0.103-0.245,0.245-0.245C175.969,45.58,176.062,45.688,176.062,45.825z M175.626,48.588v-2.156h0.393v2.156H175.626z"/>
	<path fill="#83CCCD" d="M176.652,48.588c0.009-0.147,0.018-0.365,0.018-0.557v-2.606h0.388v1.354h0.009
		c0.139-0.241,0.388-0.396,0.735-0.396c0.534,0,0.913,0.445,0.909,1.101c0,0.771-0.486,1.153-0.967,1.153
		c-0.312,0-0.562-0.12-0.723-0.405h-0.013l-0.018,0.356H176.652z M177.058,47.724c0,0.049,0.009,0.098,0.018,0.143
		c0.076,0.271,0.304,0.459,0.589,0.459c0.409,0,0.654-0.334,0.654-0.829c0-0.432-0.223-0.802-0.642-0.802
		c-0.268,0-0.517,0.183-0.597,0.481c-0.009,0.044-0.022,0.098-0.022,0.16V47.724z"/>
	<path fill="#83CCCD" d="M181.012,48c0,0.223,0.004,0.419,0.018,0.588h-0.348l-0.022-0.352h-0.009c-0.103,0.173-0.329,0.4-0.713,0.4
		c-0.338,0-0.744-0.187-0.744-0.944v-1.261h0.393v1.194c0,0.409,0.125,0.686,0.481,0.686c0.263,0,0.445-0.183,0.517-0.356
		c0.022-0.058,0.035-0.129,0.035-0.2v-1.323h0.393V48z"/>
	<path fill="#83CCCD" d="M181.61,48.187c0.116,0.076,0.321,0.156,0.518,0.156c0.285,0,0.418-0.143,0.418-0.32
		c0-0.188-0.111-0.29-0.4-0.396c-0.388-0.139-0.57-0.353-0.57-0.611c0-0.347,0.28-0.632,0.744-0.632c0.218,0,0.409,0.062,0.53,0.133
		l-0.099,0.285c-0.084-0.053-0.24-0.124-0.44-0.124c-0.232,0-0.361,0.134-0.361,0.294c0,0.178,0.129,0.258,0.41,0.365
		c0.374,0.143,0.565,0.33,0.565,0.65c0,0.379-0.294,0.646-0.807,0.646c-0.235,0-0.454-0.059-0.605-0.147L181.61,48.187z"/>
	<path fill="#83CCCD" d="M183.287,48.356c0-0.165,0.111-0.281,0.268-0.281s0.263,0.116,0.263,0.281c0,0.16-0.103,0.28-0.268,0.28
		C183.395,48.637,183.287,48.517,183.287,48.356z"/>
</g>
<g>
	<path fill="#FFFFFF" d="M200.414,169.988c0,5.089-4.131,9.219-9.226,9.219h-46.104c-5.093,0-9.222-4.13-9.222-9.219V73.166
		c0-5.096,4.129-9.22,9.222-9.22h46.104c5.095,0,9.226,4.124,9.226,9.22V169.988z"/>
	<path fill="#2AB2CC" d="M177.355,71.62c0,1.126-0.916,2.045-2.047,2.045h-14.344c-1.131,0-2.051-0.919-2.051-2.045l0,0
		c0-1.135,0.92-2.056,2.051-2.056h14.344C176.439,69.564,177.355,70.485,177.355,71.62L177.355,71.62z M168.139,166.018
		c-2.976,0-5.382,2.406-5.382,5.381c0,2.971,2.406,5.379,5.382,5.379c2.975,0,5.379-2.408,5.379-5.379
		C173.518,168.424,171.113,166.018,168.139,166.018z"/>
	<rect x="139.447" y="76.225" fill="#2AB2CC" width="57.379" height="87.345"/>
</g>
<rect x="162.587" y="207.738" fill="#FFFFFF" width="11.413" height="10.006"/>
<rect x="179.318" y="195.101" fill="#2AB2CC" width="11.416" height="22.501"/>
<rect x="196.053" y="199.078" fill="#CAD436" width="11.412" height="18.666"/>
<rect x="212.785" y="188.526" fill="#FFFFFF" width="11.413" height="29.075"/>
<rect x="112.072" y="188.526" fill="#FFFFFF" width="11.413" height="29.218"/>
<rect x="128.803" y="200.623" fill="#CAD436" width="11.417" height="16.979"/>
<rect x="145.538" y="195.101" fill="#ED7076" width="11.413" height="22.644"/>
<path fill="#ED7076" d="M59.197,34.949V28.11c0-3.348-2.732-6.062-6.083-6.062H41.23c-3.355,0-6.08,2.714-6.08,6.062v6.839
	c0,3.327,2.686,6.02,6.004,6.064V45.8l6.918-4.786h5.042C56.465,41.014,59.197,38.294,59.197,34.949"/>
<path fill="#2AB2CC" d="M77.166,29.347H63.457v7.135c0,3.776-3.97,7.756-7.753,7.756h-2.997v3.597c0,4.563,3.716,7.338,8.275,7.338
	h6.855l9.428,6.511v-6.511c4.517-0.056,8.16-3.733,8.16-8.263v-9.297C85.426,33.052,81.722,29.347,77.166,29.347"/>
<path fill="#2AB2CC" d="M275.294,34.949V28.11c0-3.348,2.732-6.062,6.083-6.062h11.884c3.354,0,6.08,2.714,6.08,6.062v6.839
	c0,3.327-2.685,6.02-6.004,6.064V45.8l-6.919-4.786h-5.041C278.026,41.014,275.294,38.294,275.294,34.949"/>
<path fill="#CAD436" d="M257.325,29.347h13.709v7.135c0,3.776,3.97,7.756,7.753,7.756h2.996v3.597c0,4.563-3.715,7.338-8.275,7.338
	h-6.854l-9.429,6.511v-6.511c-4.516-0.056-8.159-3.733-8.159-8.263v-9.297C249.065,33.052,252.77,29.347,257.325,29.347"/>
<g opacity="0.87">
	<g>
		<defs>
			<rect id="SVGID_1_" x="152.232" y="123.425" width="31.811" height="31.813"/>
		</defs>
		<clipPath id="SVGID_2_">
			<use xlink:href="#SVGID_1_"  overflow="visible"/>
		</clipPath>
		<path clip-path="url(#SVGID_2_)" fill="#CECECE" d="M168.137,123.425c-8.77,0-15.904,7.135-15.904,15.905
			c0,8.771,7.135,15.908,15.904,15.908c8.771,0,15.906-7.137,15.906-15.908C184.043,130.56,176.908,123.425,168.137,123.425
			 M159.883,139.236c0-1.958,0.311-3.833,0.871-5.571h6.658v11.333h-6.596C160.217,143.203,159.883,141.265,159.883,139.236
			 M174.592,132.212h-5.729v-7.034C171.338,126.822,173.344,129.274,174.592,132.212 M167.412,124.929v7.283h-6.115
			C162.607,129.123,164.758,126.57,167.412,124.929 M167.412,146.451v7.086c-2.598-1.607-4.711-4.087-6.033-7.086H167.412z
			 M168.863,146.451h5.646c-1.256,2.85-3.227,5.229-5.646,6.836V146.451z M168.863,144.998v-11.333h6.27
			c0.562,1.738,0.873,3.613,0.873,5.571c0,2.028-0.332,3.967-0.938,5.762H168.863z M176.646,133.665h4.787
			c0.744,1.738,1.156,3.653,1.156,5.665s-0.412,3.924-1.156,5.668h-4.844c0.557-1.81,0.867-3.746,0.867-5.762
			C177.457,137.288,177.17,135.416,176.646,133.665 M181.43,133.658c-0.105-0.246-0.217-0.485-0.334-0.724
			C181.211,133.173,181.324,133.412,181.43,133.658 M181.078,132.902c-0.117-0.233-0.238-0.462-0.371-0.69
			C180.84,132.44,180.961,132.669,181.078,132.902 M180.707,132.212h-4.549c-1.072-2.757-2.746-5.153-4.844-6.978
			C175.338,126.139,178.725,128.726,180.707,132.212 M164.424,125.361c-2.025,1.81-3.646,4.156-4.689,6.851h-4.17
			C157.463,128.881,160.637,126.371,164.424,125.361 M155.18,132.938c-0.117,0.235-0.23,0.479-0.338,0.727h4.398
			c-0.521,1.751-0.811,3.623-0.811,5.571c0,2.016,0.311,3.952,0.867,5.762h-4.455c0.107,0.245,0.221,0.486,0.338,0.727
			c-0.957-1.928-1.496-4.101-1.496-6.395C153.684,137.035,154.223,134.865,155.18,132.938 M155.564,132.212
			c-0.127,0.229-0.248,0.457-0.367,0.688C155.316,132.669,155.438,132.44,155.564,132.212 M155.197,145.76
			c0.119,0.234,0.24,0.463,0.367,0.688C155.438,146.223,155.316,145.994,155.197,145.76 M155.564,146.451h4.244
			c1.098,2.742,2.801,5.123,4.92,6.924C160.809,152.423,157.512,149.871,155.564,146.451 M171.018,153.494L171.018,153.494
			c2.186-1.812,3.941-4.236,5.066-7.043h4.623C178.676,150.023,175.168,152.651,171.018,153.494 M181.43,145.002
			c-0.105,0.245-0.219,0.482-0.334,0.723C181.213,145.488,181.324,145.247,181.43,145.002 M181.078,145.76
			c-0.117,0.234-0.238,0.463-0.371,0.688C180.84,146.223,180.961,145.99,181.078,145.76"/>
	</g>
</g>
<g>
	<path fill-rule="evenodd" clip-rule="evenodd" fill="#ECECEC" d="M90.645,76.692c0.873,3.79,1.334,7.763,1.334,11.851
		c0,22.32-13.799,41.125-32.583,46.799c-0.595,0.18-1.151,0.18-1.735,0c-18.786-5.674-32.583-24.479-32.583-46.799
		c0-4.088,0.458-8.061,1.333-11.851c0.201-0.858,0.701-1.521,1.47-1.951c0.767-0.432,1.582-0.508,2.417-0.23
		c2.408,0.8,4.951,1.233,7.6,1.233c7.194,0,13.709-3.202,18.412-8.362c0.584-0.647,1.342-0.979,2.223-0.979
		c0.874,0,1.633,0.332,2.227,0.979c4.691,5.16,11.206,8.362,18.402,8.362c2.639,0,5.189-0.434,7.598-1.233
		c0.835-0.277,1.659-0.201,2.42,0.23C89.943,75.171,90.443,75.834,90.645,76.692z"/>
	<path fill-rule="evenodd" clip-rule="evenodd" fill="#CAD436" d="M85.377,81.111c-2.044,0.431-4.124,0.651-6.217,0.651
		c-7.752,0-14.986-2.979-20.629-8.102c-5.65,5.122-12.885,8.102-20.635,8.102c-2.092,0-4.174-0.221-6.207-0.651
		c-0.396,2.455-0.597,4.941-0.597,7.432c0,17.682,10.276,35.109,27.438,40.766c17.156-5.656,27.431-23.084,27.431-40.766
		C85.962,86.053,85.771,83.566,85.377,81.111z"/>
	<path fill-rule="evenodd" clip-rule="evenodd" fill="#FFFFFF" d="M71.467,88.351l-17.281,17.29l-8.596-8.598
		c-0.441-0.446-1.16-0.446-1.603,0l-3.291,3.287c-0.44,0.445-0.44,1.17,0,1.611c15.629,15.628-2.945-2.957,12.684,12.68l0.019,0.023
		l0,0c0.453,0.377,1.133,0.431,1.584-0.023c7.129-7.125,14.257-14.255,21.377-21.377c0.439-0.443,0.439-1.166,0-1.61l-3.291-3.288
		C72.627,87.904,71.907,87.904,71.467,88.351z"/>
</g>
<g>
	<path fill-rule="evenodd" clip-rule="evenodd" fill="#ECECEC" d="M309.653,76.908c0.873,3.799,1.335,7.773,1.335,11.86
		c0,22.314-13.798,41.11-32.583,46.791c-0.594,0.183-1.15,0.183-1.734,0c-18.787-5.681-32.584-24.477-32.584-46.791
		c0-4.087,0.459-8.062,1.333-11.86c0.201-0.854,0.702-1.516,1.469-1.946c0.767-0.422,1.583-0.511,2.419-0.231
		c2.406,0.806,4.95,1.239,7.598,1.239c7.195,0,13.71-3.206,18.412-8.368c0.584-0.643,1.344-0.977,2.225-0.977
		c0.873,0,1.631,0.334,2.226,0.977c4.691,5.162,11.206,8.368,18.402,8.368c2.638,0,5.19-0.434,7.599-1.239
		c0.833-0.279,1.658-0.19,2.42,0.231C308.954,75.393,309.453,76.055,309.653,76.908z"/>
	<path fill-rule="evenodd" clip-rule="evenodd" fill="#ED7076" d="M304.385,81.334c-2.043,0.429-4.123,0.65-6.215,0.65
		c-7.753,0-14.988-2.983-20.628-8.107c-5.65,5.124-12.885,8.107-20.637,8.107c-2.091,0-4.175-0.222-6.206-0.65
		c-0.396,2.454-0.598,4.947-0.598,7.435c0,17.67,10.277,35.104,27.44,40.755c17.154-5.65,27.429-23.085,27.429-40.755
		C304.971,86.281,304.78,83.788,304.385,81.334z"/>
	<path fill-rule="evenodd" clip-rule="evenodd" fill="#FFFFFF" d="M269.301,88.564l8.241,8.243l8.24-8.243
		c0.442-0.43,1.162-0.43,1.603,0l3.292,3.292c0.432,0.44,0.441,1.162,0,1.601l-8.241,8.252l8.241,8.231
		c0.441,0.444,0.432,1.171,0,1.604l-3.292,3.288c-0.44,0.443-1.169,0.45-1.612,0.013l-8.23-8.253l-8.241,8.24
		c-0.442,0.443-1.161,0.443-1.603,0l-3.291-3.288c-0.44-0.441-0.44-1.16,0-1.604l8.232-8.231l-8.232-8.239
		c-0.44-0.444-0.44-1.173,0-1.613l3.291-3.292C268.14,88.135,268.858,88.135,269.301,88.564z"/>
</g>
<path fill-rule="evenodd" clip-rule="evenodd" fill="#2AB2CC" d="M41.672,195.283l9.344-16.185c0.5-0.863,1.234-1.428,2.197-1.686
	l9.003-2.411c1.923-0.515,3.915,0.635,4.429,2.557l2.412,9.002c0.256,0.963,0.133,1.883-0.359,2.744l-9.348,16.184
	c-0.996,1.727-3.217,2.319-4.938,1.324l-11.416-6.589C41.27,199.228,40.676,197.009,41.672,195.283L41.672,195.283z M60.711,178.339
	c-0.883,0.888-0.883,2.318,0,3.204c0.887,0.884,2.322,0.884,3.202,0c0.89-0.886,0.89-2.316,0-3.204
	C63.033,177.455,61.598,177.455,60.711,178.339z"/>
<g id="XMLID_502_">
	<path id="XMLID_508_" fill="#CAD436" d="M186.026,85.421H151.34c-3.22,0-5.833,2.613-5.833,5.833v11.719
		c0,3.222,2.613,5.832,5.833,5.832h13.55l3.986,8.573l3.829-8.573h13.321c3.222,0,5.832-2.61,5.832-5.832V91.254
		C191.858,88.034,189.248,85.421,186.026,85.421z"/>
	<g id="XMLID_503_">
		<text id="XMLID_507_" transform="matrix(1 0 0 1 166.3379 103.2432)" fill="#FFFFFF" font-family="'Bebas'" font-size="13.5583">205</text>
		<path id="XMLID_504_" fill="#ED7076" d="M157.577,93.989c-2.974-5.035-8.682-3.997-7.409,1.702c1.011,4.509,7.409,8.34,7.409,8.34
			s6.398-3.831,7.405-8.34C166.261,89.992,160.551,88.954,157.577,93.989z"/>
	</g>
</g>
</svg>
